<svg width="192" height="65" viewBox="0 0 192 65" fill="none" xmlns="http://www.w3.org/2000/svg">
<path d="M186.395 32.0095C187.102 31.2559 187.45 30.656 187.864 29.711C188.126 29.1143 188.308 27.8641 188.83 27.5905C189.526 32.7916 187.851 38.3935 184.701 42.5473C184.01 43.4581 181.704 46.0423 180.745 46.4612C179.992 47.024 178.501 47.897 177.632 48.2655C168.272 52.0253 158.359 54.8979 148.833 58.239C148.335 58.4139 147.522 58.7183 147.02 58.82C145.744 59.3034 143.086 60.1867 141.766 60.5506L140.263 60.9795C138.816 61.2765 136.376 61.4766 134.975 61.0185C134.417 61.0523 132.536 60.3217 131.929 60.0765C131.721 59.9774 131.515 59.8742 131.31 59.767C128.278 58.1682 126.156 55.519 125.133 52.2536C124.471 49.3528 125.011 46.1229 125.608 43.2402C125.775 42.8689 126.291 40.8487 126.316 40.8187C126.35 41.6909 126.945 44.2774 127.465 44.8866C127.861 45.7514 128.272 46.6088 128.699 47.4583C129.783 49.0706 130.92 50.0569 132.772 50.6978C133.796 50.9178 136 51.1504 136.928 50.7947C138.106 50.6028 139.473 49.952 140.78 49.7516C141.017 49.6345 141.259 49.5415 141.51 49.462C143.39 48.866 145.237 48.1541 147.128 47.5938C147.464 47.3784 149.648 46.739 150.171 46.5586L158.983 43.4884C162.668 41.9734 166.98 40.6731 170.756 39.3487C173.932 38.2348 177.053 36.9989 180.201 35.8422C182.215 34.7852 185.065 34.1225 186.395 32.0095Z" fill="white"/>
<path d="M125.608 43.2402C125.775 42.869 126.291 40.8487 126.316 40.8187C126.35 41.691 126.945 44.2775 127.465 44.8866C127.861 45.7515 128.272 46.6088 128.699 47.4583C129.783 49.0706 130.92 50.0569 132.772 50.6979C133.796 50.9179 136 51.1504 136.928 50.7948C138.106 50.6029 139.473 49.952 140.78 49.7516C141.261 49.9299 141.399 49.5988 141.709 49.7086L141.738 49.8065C141.506 50.1174 141.367 50.3129 141.081 50.5816C139.836 50.6764 137.449 51.7381 136.651 52.6897C133.516 53.267 134.813 57.4255 136.661 58.6543C137.424 59.1622 138.099 59.4004 138.909 59.735C139.064 59.799 139.29 60.6751 139.438 60.8409C138.844 60.9116 138.256 60.9701 137.677 61.0107C137.147 61.0477 135.262 60.9201 134.975 61.0185C134.417 61.0524 132.536 60.3217 131.929 60.0765C131.721 59.9775 131.515 59.8743 131.31 59.767C128.278 58.1683 126.156 55.5191 125.133 52.2536C124.471 49.3529 125.011 46.123 125.608 43.2402Z" fill="white"/>
<path d="M128.7 47.4583C129.784 49.0705 130.92 50.0568 132.773 50.6978C132.163 50.741 132.045 50.8988 131.377 50.8107C130.625 50.7115 129.983 50.6298 129.266 50.3512C129.155 49.4006 128.595 48.0159 128.7 47.4583Z" fill="white"/>
<path d="M186.396 32.0095C187.103 31.2559 187.451 30.656 187.865 29.711C188.126 29.1143 188.308 27.8641 188.831 27.5905C189.527 32.7916 187.852 38.3935 184.702 42.5473C184.011 43.4581 181.705 46.0423 180.746 46.4612C180.245 46.3997 179.293 47.109 178.911 47.424C177.904 45.8036 179.818 45.4982 180.38 44.9213C181.338 43.9369 180.353 41.6216 180.648 40.3904C180.815 39.6941 181.242 39.3522 181.321 38.6638C181.322 37.1318 181.093 36.8624 180.202 35.8422C182.216 34.7852 185.066 34.1225 186.396 32.0095Z" fill="white"/>
<path d="M140.781 49.7516C141.018 49.6345 141.26 49.5415 141.51 49.462C143.391 48.866 145.238 48.1541 147.129 47.5938C146.412 48.3416 145.065 48.2065 144.309 48.8212C144.103 48.9875 143.631 49.8759 143.299 50.248C143.869 50.2168 144.277 49.1079 145.515 49.1342C144.699 49.7029 138.858 53.663 138.157 52.7512C137.582 53.1241 137.447 53.2592 137.109 53.8843C137.109 54.7443 137.12 56.2455 137.541 56.9785C137.712 57.0434 137.863 57.0962 138.027 57.1821C138.09 57.4943 138.213 58.4128 138.409 58.5782C139.814 59.7635 141.943 58.1858 143.271 57.6763C143.224 57.6943 145.636 57.7885 145.792 57.7857C144.776 57.9974 144.246 57.9646 143.277 58.0841C142.93 58.127 141.702 58.8988 141.304 59.0764C141.057 59.1867 140.52 59.2536 140.417 59.3821C140.791 59.5321 141.31 59.6526 141.559 59.9192L141.648 60.2261C141.985 59.9518 142.12 59.9302 142.539 59.805C142.451 59.5512 142.419 59.4979 142.495 59.2429C143.432 58.1745 143.945 59.2948 144.192 59.3506C144.807 59.4898 146.33 58.5289 147.021 58.82C145.745 59.3034 143.086 60.1867 141.767 60.5506L140.263 60.9795C138.817 61.2765 136.377 61.4766 134.976 61.0185C135.263 60.9201 137.148 61.0476 137.678 61.0106C138.257 60.9701 138.845 60.9115 139.438 60.8408C139.29 60.6751 139.064 59.7989 138.91 59.735C138.1 59.4004 137.425 59.1621 136.662 58.6542C134.814 57.4254 133.516 53.267 136.652 52.6896C137.45 51.738 139.837 50.6763 141.082 50.5816C141.368 50.3128 141.507 50.1173 141.739 49.8064L141.71 49.7086C141.4 49.5988 141.262 49.9298 140.781 49.7516Z" fill="white"/>
<path d="M158.983 43.4884C162.669 41.9734 166.98 40.6731 170.757 39.3487C173.933 38.2348 177.054 36.9989 180.202 35.8423C181.093 36.8625 181.322 37.1318 181.321 38.6638C181.242 39.3522 180.815 39.6942 180.648 40.3904C180.353 41.6216 181.338 43.9369 180.38 44.9213C179.818 45.4982 177.904 45.8036 178.911 47.4241C179.293 47.1091 180.245 46.3997 180.746 46.4612C179.993 47.0241 178.501 47.897 177.633 48.2655C178.095 47.5432 178.247 46.5302 178.635 45.7835C178.914 45.2461 179.637 44.6085 179.854 44.012C179.944 43.7671 180.006 42.8222 180.023 42.4988C180.058 41.8197 179.772 40.9945 179.882 40.2808C179.982 39.6341 180.513 38.6367 180.523 38.0345C180.314 37.7525 180.388 37.7655 180.104 37.6594C179.952 37.7804 179.947 37.9102 179.87 38.1218L179.737 38.0965C179.661 37.9064 179.632 37.7962 179.581 37.6002C179.265 37.5946 178.827 37.8428 178.524 37.9852L178.59 37.9753L178.161 38.1512C178.433 38.2316 178.633 38.3609 178.763 38.6098C178.429 38.7193 176.507 38.3984 175.635 38.6708C174.783 38.9944 173.433 39.2011 172.644 39.598C170.842 40.5518 168.922 40.8952 167.052 41.5559C164.294 42.5309 162.09 44.065 158.983 43.4884Z" fill="white"/>
<path d="M131.759 8.56689C131.768 8.50756 131.775 8.48003 131.805 8.42597C133.28 5.76584 135.471 3.63824 138.353 2.66634C143.326 0.988849 147.907 3.79663 152.317 5.70446C154.016 6.43991 155.119 6.71787 156.849 7.58682C162.716 9.98054 168.552 12.4555 174.353 15.0111C179.474 17.2085 185.721 18.8402 188.108 24.597C188.368 25.226 188.853 26.9045 188.831 27.5904C188.308 27.8641 188.126 29.1143 187.865 29.711C187.451 30.656 187.103 31.2559 186.396 32.0095C184.361 29.2531 180.21 27.9073 177.132 26.8772L170.821 24.7799C167.06 23.5413 163.329 22.2276 159.596 20.9068C156.53 19.8214 153.17 18.8781 150.116 17.7503C148.785 17.4062 145.703 16.1954 144.491 16.1386C144.319 16.3798 142.946 17.8527 142.707 18.0487C141.557 17.0643 140.189 16.8948 138.819 16.3153C138.119 16.0198 137.434 15.5515 136.735 15.3321C135.409 14.8126 134.021 14.3235 132.856 13.4602C132.466 13.1704 132.457 13.0363 132.369 12.5877C132.257 12.6552 131.572 13.1357 131.61 13.1189C131.147 13.7491 131.001 13.952 130.701 14.6632C130.672 14.8577 130.604 14.985 130.527 15.1637L130.387 15.1424C130.206 13.4702 130.998 11.6518 131.404 10.0358C131.531 9.53035 131.74 9.10578 131.759 8.56689Z" fill="white"/>
<path d="M131.759 8.56689C131.768 8.50756 131.775 8.48003 131.805 8.42597C133.28 5.76584 135.471 3.63824 138.353 2.66634C143.326 0.988849 147.907 3.79663 152.317 5.70446C154.016 6.43991 155.119 6.71787 156.849 7.58682L156.711 7.69446C154.986 6.95177 153.629 6.44699 151.887 5.77857C151.2 6.11191 151.441 5.95413 150.963 6.51725C150.426 6.61594 150.207 6.25263 149.44 6.18452C147.586 6.02009 145.541 6.26081 143.703 6.52044C142.634 6.82614 141.171 7.48378 140.273 8.09978C139.08 8.9174 138.009 10.5339 136.523 10.8137C135.909 10.9291 134.641 9.88469 134.169 9.49695C133.639 9.9562 133.301 10.2389 132.848 10.7873L132.779 10.6315C132.527 11.0762 132.99 11.2771 132.513 12.0381C132.244 12.4658 131.577 12.8604 131.61 13.1189C131.147 13.7491 131.001 13.952 130.701 14.6632C130.672 14.8577 130.604 14.985 130.527 15.1637L130.387 15.1424C130.206 13.4702 130.998 11.6518 131.404 10.0358C131.531 9.53035 131.74 9.10578 131.759 8.56689Z" fill="white"/>
<path d="M132.368 12.5878C132.714 12.606 133.953 12.649 134.222 12.7185C135.176 13.5722 136.683 13.485 137.66 13.8381C139.187 14.3178 140.458 15.1158 141.898 15.6828C142.544 15.9369 143.537 15.8565 144.491 16.1386C144.318 16.3798 142.945 17.8528 142.707 18.0488C141.557 17.0644 140.189 16.8948 138.818 16.3153C138.119 16.0198 137.433 15.5515 136.734 15.3322C135.408 14.8127 134.02 14.3235 132.856 13.4602C132.466 13.1705 132.456 13.0364 132.368 12.5878Z" fill="#7C786C"/>
<path d="M132.847 10.7874C133.375 11.5905 134.16 11.3387 134.962 11.2533C135.585 11.187 136.635 11.4198 137.137 11.0938C137.762 10.6881 138.291 10.004 138.94 9.64917C138.781 10.0004 138.357 10.3398 138.138 10.7547C138.51 10.7597 138.96 10.7502 139.322 10.8089C138.291 10.9537 137.223 11.4248 136.781 11.4596L136.816 11.4649C137.362 11.5528 139.345 12.1204 139.737 12.5254L139.794 12.7238C139.635 12.9577 139.691 12.8875 139.412 13.0135C139.218 12.6736 139.23 12.5247 138.931 12.4214C138.586 12.6247 138.426 13.1392 138.583 13.4735C138.84 13.4488 140.024 14.0302 140.272 14.1996L140.235 14.273C139.644 14.1017 138.688 13.7168 138.084 13.4941C137.747 13.6144 137.855 13.5291 137.661 13.8381C136.684 13.485 135.176 13.5722 134.222 12.7185C133.953 12.649 132.714 12.606 132.368 12.5878C132.257 12.6552 131.572 13.1358 131.61 13.119C131.577 12.8605 132.244 12.4659 132.513 12.0381C132.99 11.2772 132.527 11.0762 132.779 10.6315L132.847 10.7874Z" fill="white"/>
<path d="M134.222 12.7184C135.541 12.6549 136.804 13.1281 138.084 13.494C137.747 13.6143 137.854 13.529 137.66 13.8381C136.684 13.4849 135.176 13.5721 134.222 12.7184Z" fill="white"/>
<path d="M137.66 13.8381C137.854 13.529 137.746 13.6143 138.084 13.494C138.688 13.7168 139.644 14.1017 140.235 14.273C141.811 14.9665 149.37 17.1357 150.116 17.7503C148.785 17.4062 145.702 16.1954 144.491 16.1385C143.536 15.8565 142.544 15.9368 141.898 15.6827C140.458 15.1157 139.186 14.3177 137.66 13.8381Z" fill="white"/>
<path d="M4.65406 42.99C3.18412 40.1979 3.83588 36.324 4.36498 33.2858C5.3827 27.4416 4.95505 19.8837 11.1329 16.7861C16.4461 14.122 25.7689 15.0155 25.7401 22.6365C25.8302 25.613 25.1403 28.516 24.7292 31.4611C24.1272 35.7744 24.064 40.2139 20.7749 43.4939C18.9538 45.3099 17.4303 46.0152 14.9105 46.4484C10.9061 46.8297 7.10842 46.6231 4.65406 42.99ZM14.3216 39.5428C16.1993 39.4071 16.5104 38.4407 16.958 36.6575C17.4644 34.6402 17.5847 32.4484 17.9294 30.3939C18.1881 28.4256 18.6522 26.4413 18.5591 24.4531C18.4714 22.5835 16.3571 22.4757 14.9567 22.5889C14.3783 22.6825 13.3239 23.4043 13.0536 23.9016C12.1974 25.558 12.1761 27.7552 11.8277 29.5936C11.3142 32.3046 10.5721 35.1122 10.8646 37.8785C11.0497 39.6282 12.766 39.8305 14.1865 39.5702C14.2317 39.5618 14.2767 39.5527 14.3216 39.5428Z" fill="white"/>
<path d="M34.6111 31.3411C33.8298 35.5977 33.2716 40.6066 32.4265 44.9042C32.33 45.3954 27.0034 45.3372 26.3956 45.2059C25.9004 45.0989 26.2967 43.4904 26.2951 43.1212C27.1196 37.1293 28.2392 31.1918 29.2142 25.2276C29.4022 24.1074 29.5725 22.9844 29.7253 21.8588C29.911 20.4304 30.0979 18.068 30.6584 16.8005C31.395 16.4066 34.7386 16.6542 35.7425 16.6098C36.0899 16.5944 36.501 16.7962 36.7165 17.0958C37.6733 18.425 41.2101 29.4716 41.9481 29.6576C42.6589 29.2613 42.541 27.2129 42.7087 26.4137C42.9092 25.4573 43.0097 24.2194 43.2292 23.292C43.575 21.8303 43.6771 18.0129 44.4044 16.8211C45.0277 16.2706 50.5637 16.4368 50.9685 16.809C51.3063 17.4355 50.4826 21.332 50.3352 22.1979L49.49 27.4625L46.9191 42.8208C46.8356 43.4779 46.7939 44.593 46.3243 45.0273C46.1731 45.0806 45.9679 45.1622 45.815 45.1882C45.0712 45.0374 42.7005 45.4542 41.7697 45.0866C41.4596 44.9641 41.4073 44.9905 41.2168 44.6634C40.4298 43.3124 39.7878 41.7887 39.1174 40.3682C38.4752 39.0072 37.6277 37.613 37.0087 36.2828C36.2007 34.5468 35.5027 33.0345 34.6111 31.3411Z" fill="white"/>
<path d="M45.8154 45.1881C45.8246 44.8698 46.5094 42.8978 46.7293 42.7008L46.9195 42.8207C46.8361 43.4778 46.7944 44.5929 46.3248 45.0272C46.1736 45.0805 45.9683 45.1621 45.8154 45.1881Z" fill="#5F6469"/>
<path d="M130.868 10.8762C131.089 10.1615 131.375 9.1908 131.759 8.56689C131.74 9.10579 131.532 9.53036 131.404 10.0358C130.998 11.6518 130.206 13.4702 130.387 15.1424L130.527 15.1638C130.604 14.985 130.672 14.8577 130.701 14.6632C131.001 13.9521 131.147 13.7491 131.61 13.1189C131.572 13.1357 132.257 12.6552 132.369 12.5877C132.457 13.0363 132.466 13.1705 132.856 13.4602C134.021 14.3235 135.409 14.8126 136.735 15.3321C137.434 15.5515 138.119 16.0198 138.819 16.3153C140.189 16.8948 141.557 17.0643 142.707 18.0488C142.321 18.5327 142.137 18.7667 141.838 19.3053C141.71 19.6417 141.568 19.9923 141.459 20.334C140.891 22.7161 140.067 25.0583 139.38 27.4034C139.196 28.0338 138.651 29.7781 138.581 30.3392C137.462 33.5682 136.603 36.9959 135.625 40.2818C135.103 42.0317 134.671 43.972 134.042 45.6887C133.808 47.1042 133.728 47.858 134.393 49.2266C134.702 49.8641 134.781 49.9269 134.862 50.6271C135.463 50.9148 136.322 50.7148 136.929 50.7947C136.001 51.1504 133.797 50.9178 132.773 50.6978C130.92 50.0569 129.784 49.0705 128.699 47.4583C128.273 46.6088 127.861 45.7514 127.466 44.8866C126.945 44.2774 126.351 41.6909 126.317 40.8187C126.292 40.8487 125.775 42.8689 125.608 43.2402L125.714 42.2698C126.35 39.1909 126.91 36.0969 127.395 32.9904C127.608 31.6417 127.735 30.2411 127.976 28.9071C128.361 27.4905 128.776 24.0934 129.045 22.4567C129.346 20.6265 130.02 17.035 130.036 15.3819C130.09 15.1671 130.106 14.8576 130.125 14.629C130.441 13.3921 130.376 12.4953 130.868 10.8762Z" fill="#858585"/>
<path d="M127.465 44.8867L127.578 44.8187C128.043 45.7686 129.198 48.4728 130.149 48.8746C132.466 48.8046 131.467 49.7979 132.158 50.2262C132.39 50.1551 132.459 50.1461 132.639 49.9788C132.096 48.6761 129.671 45.9907 128.578 45.1446C129.435 45.1066 131.675 47.9826 132.269 48.7307C132.468 48.9815 132.606 49.4718 132.828 49.7265C133.245 50.0939 133.93 50.6784 134.497 50.6735L134.614 50.5584C134.568 49.9527 133.209 48.783 133.281 48.4988C133.453 47.823 133.662 46.2986 133.929 45.707L134.041 45.6887C133.807 47.1043 133.727 47.8581 134.392 49.2267C134.701 49.8642 134.78 49.9269 134.861 50.6271C135.463 50.9149 136.321 50.7149 136.928 50.7948C136 51.1504 133.796 50.9179 132.772 50.6979C130.92 50.0569 129.783 49.0706 128.699 47.4583C128.272 46.6088 127.86 45.7515 127.465 44.8867Z" fill="#8C8E7B"/>
<path d="M131.61 13.119C131.571 13.1358 132.256 12.6552 132.368 12.5878C132.456 13.0364 132.466 13.1705 132.856 13.4602C134.02 14.3235 135.408 14.8127 136.734 15.3322L136.698 15.4871C134.781 14.8909 133.566 14.3181 132 13.0853L131.54 13.6888C131.918 14.1007 132.917 14.7747 132.892 15.2134C131.975 15.774 131.577 15.5412 131.036 14.684L130.7 14.6632C131 13.9521 131.146 13.7492 131.61 13.119Z" fill="#8C8E7B"/>
<path d="M136.735 15.3322C137.434 15.5515 138.12 16.0198 138.819 16.3153C140.19 16.8948 141.557 17.0643 142.708 18.0488C142.321 18.5327 142.137 18.7667 141.839 19.3053C141.71 19.6417 141.569 19.9923 141.459 20.334C141.455 20.3083 141.453 20.2825 141.45 20.2568C141.37 19.342 141.832 19.4023 141.747 18.8606C141.561 18.8106 141.535 18.8034 141.383 18.6868L141.375 17.9544C141.234 17.5737 137.324 15.8249 136.699 15.4871L136.735 15.3322Z" fill="white"/>
<path d="M63.6005 16.6489L75.7163 16.6332C77.5869 16.632 79.7333 16.5489 81.5651 16.6521C81.5713 17.8257 80.8407 21.6204 80.4439 22.7165C79.0597 22.8929 77.5435 22.7617 76.1482 22.7918C73.7428 22.8435 71.1832 22.5822 68.7988 22.8686C68.4873 24.2798 68.1269 26.6967 68.1281 28.1023C69.1263 27.9956 74.7707 27.8077 75.3055 28.3267C75.5273 29.0379 74.6546 33.4242 74.3601 34.2405L72.5389 34.2242C70.6262 34.2018 68.7132 34.226 66.8016 34.2967C66.4321 38.0168 65.5468 41.6634 65.1233 45.2876C62.7889 45.385 60.4521 45.4088 58.1162 45.3594C58.115 44.6527 58.1624 43.9468 58.2583 43.2468C58.3453 42.5988 58.9172 39.4983 59.0033 39.0023C59.461 36.3629 62.2932 17.4504 62.6494 16.8631C62.9442 16.6637 63.2473 16.6745 63.6005 16.6489Z" fill="white"/>
<path d="M95.6638 16.6602C96.681 16.5452 98.0554 16.6335 99.1007 16.6408C104.402 16.6777 109.705 16.6189 115.006 16.631C115.414 16.6319 115.949 16.6779 116.337 16.7987C116.712 17.531 115.624 21.9859 115.218 22.8462C113.583 22.6546 110.697 22.7139 109 22.8326C108.769 22.8487 108.763 22.9229 108.65 23.0897C107.552 27.9084 107.139 33.1556 106.168 38.0338C105.694 40.4107 105.5 42.9045 104.988 45.3288C102.964 45.2365 100.845 45.3895 98.8213 45.2804C98.5822 45.2675 98.3704 45.2072 98.2288 45.0208C97.9822 43.6409 99.3032 36.6292 99.5966 34.7657L101.419 22.899C100.029 22.736 95.4163 22.9369 94.7929 22.5782C94.5538 21.8714 95.4304 17.6307 95.6638 16.6602Z" fill="white"/>
<path d="M86.2954 16.6822C87.1135 16.5932 91.8228 16.5892 92.6371 16.6693C92.6017 17.237 92.492 18.4597 92.3292 19.0028C92.1932 20.8256 91.6381 23.3863 91.4173 25.3719L89.0863 38.8707C88.7244 40.9848 88.4307 43.0793 87.9938 45.1918C86.6928 45.2579 85.3906 45.2934 84.0881 45.2984C83.4466 45.3059 81.5795 45.3154 81.0149 45.4431C80.3843 44.6009 81.6775 39.3374 81.834 38.1388C82.1314 35.8626 82.5493 33.4955 82.9295 31.2303L84.6326 21.4782C84.8922 19.9399 85.0766 18.2107 85.3755 16.7231C85.6309 16.6942 86.0278 16.6922 86.2954 16.6822Z" fill="white"/>
<path d="M86.2959 16.6822C87.114 16.5932 91.8233 16.5892 92.6376 16.6693C92.6022 17.237 92.4925 18.4597 92.3296 19.0028C92.1594 18.1673 92.238 17.5732 92.3611 16.733C90.3991 16.6748 88.2352 16.8113 86.2959 16.6822Z" fill="white"/>
</svg>
