<svg width="227" height="71" viewBox="0 0 227 71" fill="none" xmlns="http://www.w3.org/2000/svg">
<path d="M97.4552 13.9205C98.1314 14.2867 98.1314 14.2867 98.8246 14.7805C99.0844 14.9651 99.3438 15.1497 99.611 15.3399C101.028 16.3918 102.418 17.4763 103.802 18.5709C106.016 20.309 108.237 22.0266 110.523 23.6647C111.762 24.553 112.953 25.486 114.112 26.4807C114.648 26.8374 114.648 26.8374 115.273 26.6781C116.067 26.4045 116.594 26.0471 117.264 25.532C117.511 25.3438 117.758 25.1555 118.012 24.9616C118.277 24.757 118.541 24.5525 118.813 24.3417C119.379 23.9092 119.945 23.4767 120.511 23.0443C120.801 22.8217 121.091 22.599 121.39 22.3696C123.034 21.1116 124.69 19.8705 126.348 18.6326C127.494 17.775 128.627 16.9131 129.723 15.9907C132.442 13.739 132.442 13.739 134.133 13.6245C135.661 13.7977 136.453 14.4795 137.483 15.6115C137.868 16.7908 137.858 17.8438 137.852 19.0699C137.852 19.3174 137.852 19.565 137.852 19.8201C137.851 20.6381 137.849 21.4561 137.846 22.2741C137.845 22.8414 137.845 23.4086 137.845 23.9759C137.844 25.4688 137.84 26.9617 137.837 28.4546C137.833 29.9781 137.832 31.5015 137.83 33.025C137.827 36.0141 137.821 39.0032 137.814 41.9923C134.866 41.9923 131.919 41.9923 128.882 41.9923C128.882 40.0949 128.882 38.1975 128.882 36.2426C129.865 36.2426 130.847 36.2426 131.859 36.2426C131.75 31.8898 131.641 27.537 131.528 23.0523C130.675 23.7359 129.823 24.4195 128.944 25.1238C125.992 27.4791 123.005 29.7887 119.959 32.0151C119.291 32.5051 119.291 32.5051 118.721 33.0334C117.309 34.2531 116.089 34.4944 114.248 34.4C112.649 34.0734 111.591 33.1876 110.357 32.1418C109.814 31.7078 109.271 31.274 108.729 30.8405C108.453 30.6159 108.178 30.3913 107.894 30.1599C106.509 29.0433 105.082 27.9845 103.658 26.9206C103.153 26.5398 102.648 26.1588 102.143 25.7778C100.921 24.8551 99.685 23.9558 98.4476 23.0523C98.4476 27.4051 98.4476 31.7579 98.4476 36.2426C99.43 36.2426 100.412 36.2426 101.425 36.2426C101.425 38.1401 101.425 40.0374 101.425 41.9923C98.4773 41.9923 95.5298 41.9923 92.4931 41.9923C92.4555 38.676 92.4253 35.3597 92.4074 32.0431C92.3986 30.5031 92.3868 28.9631 92.368 27.4231C92.3501 25.9363 92.3405 24.4496 92.3361 22.9627C92.333 22.3961 92.3269 21.8294 92.3182 21.2629C92.3059 20.4677 92.3042 19.6731 92.305 18.8779C92.2994 18.6449 92.2932 18.4118 92.2871 18.1717C92.3068 16.2954 92.899 15.5319 94.1468 14.2587C95.2355 13.7023 96.283 13.7052 97.4552 13.9205Z" fill="white"/>
<path d="M165.271 17.6407C167.933 20.1746 169.697 23.1567 169.961 26.9258C169.979 27.8478 169.977 28.7675 169.967 29.6896C169.966 30.0236 169.965 30.3576 169.964 30.7017C169.961 31.7595 169.952 32.8173 169.944 33.875C169.941 34.596 169.938 35.3168 169.935 36.0377C169.928 37.7971 169.916 39.5564 169.903 41.3158C168.156 41.3158 166.409 41.3158 164.609 41.3158C164.501 40.1997 164.391 39.0836 164.279 37.9336C164.095 38.1172 163.91 38.3007 163.721 38.4898C160.934 41.1611 158.536 42.0655 154.685 41.9922C151.059 41.5088 147.926 39.933 145.6 37.0154C143.211 33.3806 142.748 29.6929 143.107 25.4196C143.869 21.6773 146.105 18.8676 149.061 16.626C154.212 13.3372 160.497 13.9723 165.271 17.6407ZM150.21 22.7708C148.611 24.8044 148.233 26.9267 148.4 29.4782C148.906 31.9493 149.943 33.8523 151.978 35.3243C154.121 36.5593 156.482 36.9167 158.862 36.2425C160.944 35.4097 162.628 33.9318 163.782 31.9726C164.694 29.8162 164.665 27.337 163.975 25.1211C162.939 22.8235 161.729 21.6563 159.585 20.4098C155.987 19.264 152.763 19.9474 150.21 22.7708Z" fill="white"/>
<path d="M25.7999 3.7078C26.1975 3.70998 26.5952 3.71216 27.0049 3.71441C27.6231 3.7229 27.6231 3.7229 28.2538 3.73158C28.8816 3.73616 28.8816 3.73616 29.5221 3.74083C30.5536 3.74879 31.585 3.76092 32.6164 3.77386C32.6164 5.55965 32.6164 7.34541 32.6164 9.18532C29.3414 9.35272 29.3414 9.35272 26.0002 9.52352C26.0002 20.9079 26.0002 32.2922 26.0002 44.0215C28.2927 44.1333 30.5852 44.2449 32.9472 44.3595C32.9472 46.1455 32.9472 47.9311 32.9472 49.771C31.6231 49.8023 30.2999 49.8292 28.9756 49.8455C28.5261 49.8521 28.0766 49.8614 27.6271 49.8733C22.7505 49.9976 22.7505 49.9976 21.038 48.4184C20.0264 46.2426 19.9046 44.3825 19.9224 41.9967C19.9212 41.634 19.92 41.2712 19.9188 40.8975C19.9161 39.7047 19.9206 38.512 19.9254 37.3193C19.9256 36.4871 19.9254 35.655 19.9249 34.8228C19.9249 33.0815 19.9284 31.3402 19.9344 29.5988C19.9419 27.369 19.9421 25.1393 19.9399 22.9095C19.9387 21.1921 19.9409 19.4747 19.9442 17.7573C19.9454 16.9352 19.9458 16.113 19.9453 15.2909C19.9452 14.1415 19.9494 12.9921 19.9547 11.8427C19.9539 11.5044 19.9531 11.1661 19.9522 10.8176C19.9679 8.71408 19.9882 6.74098 21.3068 5.02102C22.7448 3.88686 24.0087 3.69044 25.7999 3.7078Z" fill="#FEFEFE"/>
<path d="M61.3962 15.2733C63.252 15.2733 65.1078 15.2733 67.0201 15.2733C67.0249 15.7082 67.0297 16.143 67.0345 16.5911C67.0537 18.2155 67.0795 19.8398 67.1067 21.4642C67.118 22.1651 67.1272 22.8661 67.1347 23.5671C67.146 24.5789 67.1631 25.5905 67.1815 26.6022C67.1836 26.912 67.1858 27.2218 67.188 27.541C67.2423 29.9992 67.5646 32.235 69.1291 34.1711C71.2937 35.9628 72.8757 36.179 75.6211 35.9045C77.2854 35.3477 78.3272 34.3586 79.2601 32.8605C80.2027 30.7351 80.4061 28.9531 80.4218 26.6352C80.4275 26.3087 80.4336 25.9823 80.4397 25.6459C80.4577 24.6122 80.4686 23.5787 80.48 22.545C80.4909 21.8403 80.5023 21.1357 80.5141 20.4311C80.5421 18.7119 80.5644 16.9927 80.5832 15.2733C82.439 15.2733 84.2948 15.2733 86.207 15.2733C86.232 17.3183 86.2499 19.3633 86.2617 21.4084C86.2665 22.1025 86.2731 22.7965 86.2818 23.4906C86.413 34.2825 86.413 34.2825 82.4854 38.5256C80.0028 40.9314 77.3361 41.9654 73.9088 42.0042C70.3822 41.8305 67.2781 40.8243 64.7046 38.2719C61.9613 34.8442 61.3411 31.2862 61.3639 26.9655C61.3643 26.6306 61.3647 26.2956 61.3652 25.9505C61.3674 24.8858 61.3713 23.8211 61.3757 22.7563C61.3774 22.0323 61.3787 21.3084 61.3801 20.5843C61.384 18.814 61.3897 17.0436 61.3962 15.2733Z" fill="white"/>
<path d="M193.721 3.77388C195.223 3.74648 196.725 3.72636 198.228 3.71046C198.866 3.69771 198.866 3.69771 199.516 3.6847C200.134 3.6798 200.134 3.6798 200.763 3.67479C201.33 3.66682 201.33 3.66682 201.908 3.65869C203.417 3.82028 204.543 4.30921 205.568 5.46495C206.216 6.58133 206.333 7.48365 206.338 8.75384C206.34 9.08238 206.342 9.41097 206.344 9.74952C206.344 10.1095 206.344 10.4696 206.345 10.8405C206.347 11.4098 206.347 11.4098 206.35 11.9906C206.354 13.2491 206.357 14.5075 206.358 15.766C206.361 16.6393 206.362 17.5126 206.364 18.3859C206.367 19.984 206.369 21.5822 206.37 23.1803C206.372 25.5304 206.378 27.8805 206.387 30.2306C206.395 32.2678 206.398 34.3049 206.398 36.3421C206.4 37.208 206.402 38.0738 206.406 38.9397C206.412 40.1509 206.411 41.362 206.409 42.5733C206.414 43.1102 206.414 43.1102 206.418 43.658C206.408 45.4991 206.329 46.8357 205.299 48.4185C203.883 49.73 202.65 49.8124 200.788 49.8041C200.143 49.8027 200.143 49.8027 199.486 49.801C199.032 49.7979 198.578 49.7952 198.124 49.7921C197.667 49.7904 197.209 49.7891 196.751 49.7877C195.631 49.7838 194.51 49.7776 193.39 49.771C193.39 47.9854 193.39 46.1998 193.39 44.3595C195.791 44.3595 198.193 44.3595 200.668 44.3595C200.668 32.7521 200.668 21.1446 200.668 9.18531C198.375 9.18531 196.083 9.18531 193.721 9.18531C193.721 7.39955 193.721 5.61379 193.721 3.77388Z" fill="#FEFEFE"/>
<path d="M53.5425 16.844C54.8258 17.9234 55.5584 18.7132 56.1038 20.3464C55.5833 20.6968 55.0585 21.0409 54.5323 21.3822C54.2406 21.5745 53.9489 21.7667 53.6484 21.9648C52.7955 22.3757 52.7955 22.3757 52.0668 22.3096C51.2498 21.9355 50.7691 21.3381 50.1493 20.6846C49.0524 19.9754 48.1475 19.9075 46.8616 19.9025C46.5243 19.8968 46.1871 19.8912 45.8394 19.8853C44.711 20.0263 44.0969 20.3111 43.2021 21.0229C42.8183 22.1911 42.8183 22.1911 42.8713 23.3903C43.6205 24.4621 44.5382 24.6893 45.7454 25.0392C46.1259 25.1543 46.5068 25.2694 46.8992 25.388C47.5474 25.5775 48.196 25.7668 48.8459 25.9507C54.6578 27.6024 54.6578 27.6024 56.4139 30.5563C57.0083 32.7371 57.1658 34.9141 56.2486 37.0247C55.0204 39.1641 53.1419 40.5777 50.8754 41.4175C47.0877 42.2649 42.8949 42.131 39.5632 39.9629C38.348 38.9597 37.4505 37.9065 36.5859 36.5808C36.6196 35.899 36.6196 35.899 36.9168 35.2279C37.5654 34.7259 37.5654 34.7259 38.3641 34.2978C38.6259 34.1531 38.8877 34.0083 39.1575 33.8592C39.8941 33.5368 39.8941 33.5368 40.8865 33.5368C41.0161 33.788 41.1457 34.0391 41.2793 34.2978C42.1315 35.6197 43.0512 36.1336 44.5255 36.5808C46.3376 36.7993 47.948 36.7543 49.6945 36.2003C50.6996 35.3887 50.9362 34.822 51.1418 33.5368C50.8474 32.6166 50.6335 32.2691 49.7938 31.8034C49.5086 31.7058 49.2234 31.6081 48.9295 31.5075C48.605 31.3955 48.2804 31.2834 47.9458 31.168C46.7443 30.8015 45.535 30.4876 44.3186 30.1758C41.8004 29.4981 39.5289 28.8034 37.8885 26.6245C36.8515 24.6671 36.9108 22.4962 37.2476 20.3464C38.0751 18.267 39.562 16.5812 41.5481 15.6114C45.6255 14.042 49.9656 14.1805 53.5425 16.844Z" fill="white"/>
<path d="M191.406 15.6114C191.406 17.5088 191.406 19.4062 191.406 21.3611C190.813 21.1797 190.219 20.9983 189.607 20.8114C187.717 20.33 186.266 20.2229 184.459 21.0228C183.328 21.8826 182.925 22.7228 182.474 24.0668C182.368 24.9331 182.368 24.9331 182.369 25.8421C182.362 26.1873 182.356 26.5325 182.349 26.8882C182.345 27.2568 182.341 27.6254 182.337 28.0051C182.331 28.3856 182.325 28.766 182.318 29.158C182.298 30.371 182.283 31.584 182.268 32.7969C182.255 33.6202 182.242 34.4435 182.229 35.2668C182.197 37.2831 182.169 39.2994 182.143 41.3158C180.288 41.3158 178.432 41.3158 176.52 41.3158C176.495 38.873 176.477 36.4303 176.465 33.9875C176.46 33.1575 176.454 32.3276 176.445 31.4977C176.433 30.3005 176.427 29.1034 176.423 27.906C176.415 27.3552 176.415 27.3552 176.407 26.7932C176.406 22.9368 177.294 19.5659 180.013 16.7727C183.249 14.1142 187.699 14.0955 191.406 15.6114Z" fill="white"/>
<path d="M43.9756 67.4721V58.7051H45.0288V66.9782L44.5022 66.4349H49.3763V67.4721H43.9756ZM52.9891 67.6203C52.3934 67.6203 51.8707 67.4805 51.4215 67.2004C50.9728 66.9204 50.6255 66.5253 50.3806 66.015C50.1356 65.4964 50.0132 64.8914 50.0132 64.1999C50.0132 63.5001 50.1356 62.895 50.3806 62.3848C50.6255 61.8746 50.9728 61.4794 51.4215 61.1994C51.8707 60.9194 52.3934 60.7796 52.9891 60.7796C53.5853 60.7796 54.1035 60.9194 54.5444 61.1994C54.9936 61.4794 55.3405 61.8746 55.5854 62.3848C55.8303 62.895 55.9528 63.5001 55.9528 64.1999C55.9528 64.8914 55.8303 65.4964 55.5854 66.015C55.3405 66.5253 54.9936 66.9204 54.5444 67.2004C54.1035 67.4805 53.5853 67.6203 52.9891 67.6203ZM52.9891 66.6324C53.5853 66.6324 54.0467 66.4186 54.373 65.9904C54.708 65.5542 54.8751 64.9571 54.8751 64.1999C54.8751 63.4427 54.708 62.85 54.373 62.4218C54.0467 61.9857 53.5853 61.7674 52.9891 61.7674C52.3934 61.7674 51.928 61.9857 51.593 62.4218C51.2584 62.85 51.0909 63.4427 51.0909 64.1999C51.0909 64.9571 51.2584 65.5542 51.593 65.9904C51.928 66.4186 52.3934 66.6324 52.9891 66.6324ZM58.4616 67.4721L56.4532 60.9277H57.5798L59.0984 66.3855L60.6415 60.9277H61.7437L63.2868 66.3855L64.8176 60.9277H65.9443L63.9358 67.4721H62.6377L61.1926 62.4959L59.7475 67.4721H58.4616ZM73.7371 67.6697C72.9616 67.6697 72.2797 67.4884 71.6919 67.1264C71.1041 66.7559 70.647 66.2289 70.3203 65.5458C69.994 64.8627 69.8304 64.0478 69.8304 63.101C69.8304 62.1541 69.994 61.3392 70.3203 60.6561C70.647 59.9646 71.1041 59.4337 71.6919 59.0632C72.2797 58.6928 72.9616 58.5076 73.7371 58.5076C74.7903 58.5076 75.6069 58.7753 76.1864 59.3102C76.7664 59.8451 77.146 60.5736 77.3253 61.4957L76.2109 61.5698C76.0884 60.9441 75.8273 60.4501 75.4271 60.0881C75.0273 59.726 74.464 59.5448 73.7371 59.5448C73.182 59.5448 72.6922 59.689 72.2675 59.977C71.8511 60.257 71.5248 60.6645 71.2878 61.1994C71.0511 61.7264 70.9326 62.3601 70.9326 63.101C70.9326 63.8418 71.0511 64.4755 71.2878 65.0025C71.5248 65.5295 71.8511 65.9326 72.2675 66.2126C72.6922 66.4926 73.182 66.6324 73.7371 66.6324C74.4964 66.6324 75.0842 66.4349 75.5006 66.0397C75.917 65.6362 76.1785 65.0929 76.2844 64.4098L77.3988 64.4839C77.293 65.1176 77.0848 65.6733 76.7742 66.1509C76.4641 66.6285 76.0517 67.0029 75.5373 67.2745C75.0313 67.5378 74.4312 67.6697 73.7371 67.6697ZM81.3094 67.6203C80.7137 67.6203 80.1911 67.4805 79.7419 67.2004C79.2931 66.9204 78.9458 66.5253 78.7009 66.015C78.456 65.4964 78.3335 64.8914 78.3335 64.1999C78.3335 63.5001 78.456 62.895 78.7009 62.3848C78.9458 61.8746 79.2931 61.4794 79.7419 61.1994C80.1911 60.9194 80.7137 60.7796 81.3094 60.7796C81.9056 60.7796 82.4239 60.9194 82.8648 61.1994C83.3139 61.4794 83.6608 61.8746 83.9057 62.3848C84.1507 62.895 84.2731 63.5001 84.2731 64.1999C84.2731 64.8914 84.1507 65.4964 83.9057 66.015C83.6608 66.5253 83.3139 66.9204 82.8648 67.2004C82.4239 67.4805 81.9056 67.6203 81.3094 67.6203ZM81.3094 66.6324C81.9056 66.6324 82.367 66.4186 82.6933 65.9904C83.0283 65.5542 83.1954 64.9571 83.1954 64.1999C83.1954 63.4427 83.0283 62.85 82.6933 62.4218C82.367 61.9857 81.9056 61.7674 81.3094 61.7674C80.7137 61.7674 80.2484 61.9857 79.9133 62.4218C79.5787 62.85 79.4112 63.4427 79.4112 64.1999C79.4112 64.9571 79.5787 65.5542 79.9133 65.9904C80.2484 66.4186 80.7137 66.6324 81.3094 66.6324ZM87.9777 67.6203C87.4144 67.6203 86.9245 67.4805 86.5081 67.2004C86.0996 66.9204 85.7856 66.5253 85.5651 66.015C85.3447 65.5048 85.2345 64.8998 85.2345 64.1999C85.2345 63.5001 85.3447 62.895 85.5651 62.3848C85.7856 61.8746 86.0996 61.4794 86.5081 61.1994C86.9245 60.9194 87.4144 60.7796 87.9777 60.7796C88.4103 60.7796 88.8061 60.8744 89.1656 61.0636C89.5247 61.2448 89.7942 61.5041 89.9739 61.8415V58.7051H91.0026V67.4721H90.0719L90.0352 66.4843C89.8554 66.8384 89.582 67.118 89.2146 67.3239C88.8472 67.5215 88.4348 67.6203 87.9777 67.6203ZM88.1859 66.6324C88.5695 66.6324 88.8918 66.5337 89.1534 66.3361C89.4228 66.1385 89.6266 65.8585 89.7657 65.4964C89.9044 65.126 89.9739 64.6938 89.9739 64.1999C89.9739 63.6897 89.9044 63.2531 89.7657 62.891C89.6266 62.529 89.4228 62.2529 89.1534 62.0637C88.8918 61.8662 88.5695 61.7674 88.1859 61.7674C87.6143 61.7674 87.1572 61.9857 86.8143 62.4218C86.4793 62.85 86.3122 63.4427 86.3122 64.1999C86.3122 64.9492 86.4793 65.5419 86.8143 65.978C87.1572 66.4141 87.6143 66.6324 88.1859 66.6324ZM95.3738 67.6203C94.7615 67.6203 94.2309 67.4805 93.7818 67.2004C93.3409 66.9204 92.998 66.5253 92.753 66.015C92.5164 65.4964 92.3979 64.8914 92.3979 64.1999C92.3979 63.5084 92.5164 62.9074 92.753 62.3971C92.998 61.8869 93.3369 61.4918 93.7695 61.2117C94.2104 60.9238 94.7291 60.7796 95.3248 60.7796C95.8882 60.7796 96.3863 60.9154 96.8189 61.187C97.2519 61.4503 97.5865 61.8375 97.8231 62.3477C98.0681 62.858 98.1905 63.4798 98.1905 64.2123V64.521H93.4756C93.5167 65.2208 93.7004 65.7474 94.0267 66.1015C94.3617 66.4556 94.8105 66.6324 95.3738 66.6324C95.7985 66.6324 96.1453 66.5337 96.4148 66.3361C96.6925 66.1301 96.8845 65.8629 96.9904 65.5335L98.0926 65.6199C97.9211 66.2042 97.5948 66.6858 97.1128 67.0646C96.6396 67.435 96.0596 67.6203 95.3738 67.6203ZM93.4756 63.6072H97.0638C97.0149 62.9735 96.8312 62.5083 96.5127 62.2119C96.2026 61.9156 95.8068 61.7674 95.3248 61.7674C94.8271 61.7674 94.4146 61.924 94.0879 62.2366C93.7695 62.5413 93.5657 62.9982 93.4756 63.6072ZM99.2997 69.3984L99.8876 67.4721H99.263V66.0768H100.647V67.2992L99.9121 69.3984H99.2997ZM105.156 67.4721V58.7051H107.017V62.8664L106.197 62.2737H111.144L110.312 62.8664V58.7051H112.173V67.4721H110.312V63.2615L111.144 63.8542H106.197L107.017 63.2615V67.4721H105.156ZM113.716 67.4721V60.8537H115.553V67.4721H113.716ZM113.679 60.0387V58.557H115.578V60.0387H113.679ZM119.98 69.4724C119.352 69.4724 118.825 69.3944 118.401 69.2378C117.984 69.0813 117.65 68.8634 117.396 68.5834C117.151 68.3034 116.98 67.9823 116.882 67.6203L118.768 67.4844C118.833 67.6983 118.956 67.8672 119.135 67.9907C119.323 68.1142 119.605 68.1759 119.98 68.1759C120.421 68.1759 120.756 68.0688 120.985 67.8549C121.221 67.6489 121.34 67.3155 121.34 66.8547V66.1509C121.184 66.4556 120.936 66.7026 120.593 66.8917C120.25 67.073 119.866 67.1634 119.442 67.1634C118.903 67.1634 118.425 67.0315 118.009 66.7683C117.592 66.4966 117.266 66.1222 117.029 65.6446C116.8 65.1591 116.686 64.5911 116.686 63.9406C116.686 63.3069 116.8 62.7468 117.029 62.2613C117.266 61.7758 117.588 61.397 117.996 61.1253C118.413 60.8453 118.886 60.7055 119.417 60.7055C119.899 60.7055 120.303 60.8126 120.629 61.0265C120.964 61.2404 121.217 61.5244 121.389 61.8785V60.8537H123.189V66.8177C123.189 67.4104 123.054 67.9003 122.785 68.2871C122.515 68.6822 122.14 68.9785 121.658 69.1761C121.177 69.3737 120.617 69.4724 119.98 69.4724ZM119.968 65.7928C120.393 65.7928 120.727 65.6283 120.972 65.2989C121.226 64.9695 121.352 64.5126 121.352 63.9283C121.352 63.5415 121.295 63.2081 121.181 62.9281C121.074 62.6481 120.915 62.4342 120.703 62.286C120.499 62.1378 120.254 62.0637 119.968 62.0637C119.527 62.0637 119.184 62.2326 118.939 62.57C118.694 62.9074 118.572 63.3603 118.572 63.9283C118.572 64.5046 118.698 64.9615 118.952 65.2989C119.205 65.6283 119.543 65.7928 119.968 65.7928ZM124.707 67.4721V58.7051H126.544V62.3971H126.299C126.365 62.0104 126.491 61.6933 126.679 61.4464C126.875 61.1994 127.116 61.0142 127.401 60.8907C127.695 60.7672 128.014 60.7055 128.357 60.7055C128.846 60.7055 129.255 60.8126 129.581 61.0265C129.908 61.2404 130.153 61.5368 130.316 61.9156C130.488 62.2944 130.573 62.7266 130.573 63.2121V67.4721H128.736V63.6566C128.736 63.1627 128.659 62.7923 128.504 62.5453C128.357 62.2984 128.104 62.1749 127.744 62.1749C127.369 62.1749 127.075 62.3023 126.863 62.5577C126.65 62.813 126.544 63.1958 126.544 63.706V67.4721H124.707ZM134.99 67.6203C134.32 67.6203 133.737 67.4805 133.239 67.2004C132.749 66.9125 132.365 66.509 132.087 65.9904C131.818 65.4717 131.683 64.8627 131.683 64.1629C131.683 63.463 131.818 62.858 132.087 62.3477C132.365 61.8291 132.749 61.4256 133.239 61.1377C133.729 60.8497 134.308 60.7055 134.978 60.7055C135.631 60.7055 136.198 60.8497 136.68 61.1377C137.162 61.4256 137.533 61.8375 137.794 62.3724C138.064 62.9074 138.199 63.5455 138.199 64.2864V64.6568H133.582C133.606 65.1838 133.745 65.5745 133.998 65.8298C134.259 66.0852 134.602 66.2126 135.027 66.2126C135.337 66.2126 135.594 66.1469 135.798 66.015C136.01 65.8832 136.162 65.6817 136.251 65.41L138.101 65.5211C137.929 66.1795 137.566 66.6942 137.011 67.0646C136.456 67.435 135.782 67.6203 134.99 67.6203ZM133.582 63.5208H136.313C136.288 63.0352 136.153 62.6728 135.908 62.4342C135.672 62.1956 135.361 62.0761 134.978 62.0761C134.594 62.0761 134.276 62.2035 134.022 62.4589C133.777 62.7058 133.631 63.0599 133.582 63.5208ZM139.334 67.4721V60.8537H141.073L141.134 62.7799L140.999 62.7429C141.105 62.0761 141.293 61.5945 141.563 61.2982C141.832 61.0018 142.204 60.8537 142.677 60.8537H143.277V62.3848H142.677C142.334 62.3848 142.053 62.4302 141.832 62.5206C141.612 62.611 141.444 62.7552 141.33 62.9528C141.224 63.1504 141.171 63.418 141.171 63.7554V67.4721H139.334ZM147.421 67.4721V58.7051H150.899C151.944 58.7051 152.76 58.9605 153.348 59.4707C153.944 59.9809 154.242 60.6808 154.242 61.5698C154.242 62.1541 154.107 62.6648 153.838 63.101C153.577 63.5292 153.193 63.8626 152.687 64.1011C152.189 64.3318 151.593 64.4469 150.899 64.4469H149.282V67.4721H147.421ZM149.282 62.8664H150.788C151.278 62.8664 151.658 62.7592 151.927 62.5453C152.197 62.323 152.332 61.998 152.332 61.5698C152.332 61.15 152.197 60.8329 151.927 60.6191C151.666 60.3968 151.287 60.2857 150.788 60.2857H149.282V62.8664ZM158.18 67.6203C157.511 67.6203 156.927 67.4805 156.429 67.2004C155.931 66.9125 155.543 66.509 155.266 65.9904C154.988 65.4717 154.849 64.8627 154.849 64.1629C154.849 63.463 154.988 62.858 155.266 62.3477C155.543 61.8291 155.931 61.4256 156.429 61.1377C156.927 60.8497 157.511 60.7055 158.18 60.7055C158.85 60.7055 159.433 60.8497 159.931 61.1377C160.43 61.4256 160.817 61.8291 161.095 62.3477C161.373 62.858 161.511 63.463 161.511 64.1629C161.511 64.8627 161.373 65.4717 161.095 65.9904C160.817 66.509 160.43 66.9125 159.931 67.2004C159.433 67.4805 158.85 67.6203 158.18 67.6203ZM158.18 66.2003C158.637 66.2003 158.992 66.0234 159.246 65.6693C159.499 65.3073 159.625 64.805 159.625 64.1629C159.625 63.5208 159.499 63.0229 159.246 62.6688C158.992 62.3067 158.637 62.1255 158.18 62.1255C157.723 62.1255 157.368 62.3067 157.115 62.6688C156.862 63.0229 156.735 63.5208 156.735 64.1629C156.735 64.805 156.862 65.3073 157.115 65.6693C157.368 66.0234 157.723 66.2003 158.18 66.2003ZM163.812 67.4721L161.865 60.8537H163.714L164.841 65.3359L166.053 60.8537H167.547L168.76 65.3359L169.898 60.8537H171.748L169.801 67.4721H168.013L166.8 63.3356L165.588 67.4721H163.812ZM175.413 67.6203C174.744 67.6203 174.16 67.4805 173.662 67.2004C173.172 66.9125 172.789 66.509 172.511 65.9904C172.242 65.4717 172.107 64.8627 172.107 64.1629C172.107 63.463 172.242 62.858 172.511 62.3477C172.789 61.8291 173.172 61.4256 173.662 61.1377C174.152 60.8497 174.732 60.7055 175.401 60.7055C176.054 60.7055 176.622 60.8497 177.103 61.1377C177.585 61.4256 177.957 61.8375 178.218 62.3724C178.487 62.9074 178.622 63.5455 178.622 64.2864V64.6568H174.005C174.03 65.1838 174.168 65.5745 174.421 65.8298C174.683 66.0852 175.025 66.2126 175.45 66.2126C175.76 66.2126 176.017 66.1469 176.222 66.015C176.434 65.8832 176.585 65.6817 176.675 65.41L178.524 65.5211C178.353 66.1795 177.989 66.6942 177.434 67.0646C176.879 67.435 176.205 67.6203 175.413 67.6203ZM174.005 63.5208H176.736C176.712 63.0352 176.577 62.6728 176.332 62.4342C176.095 62.1956 175.785 62.0761 175.401 62.0761C175.018 62.0761 174.699 62.2035 174.446 62.4589C174.201 62.7058 174.054 63.0599 174.005 63.5208ZM179.757 67.4721V60.8537H181.496L181.558 62.7799L181.423 62.7429C181.529 62.0761 181.717 61.5945 181.986 61.2982C182.256 61.0018 182.627 60.8537 183.101 60.8537H183.701V62.3848H183.101C182.758 62.3848 182.476 62.4302 182.256 62.5206C182.035 62.611 181.868 62.7552 181.754 62.9528C181.647 63.1504 181.594 63.418 181.594 63.7554V67.4721H179.757Z" fill="#CED9FF"/>
</svg>
