<svg width="527" height="548" viewBox="0 0 527 548" fill="none" xmlns="http://www.w3.org/2000/svg">
<path d="M200.499 142.08C201.059 142.122 201.288 142.186 201.84 142.301C203.643 143.661 209.319 164.06 211.915 168.503C216.969 177.156 222.29 187.697 230.067 194.439C251.133 212.717 280.958 216.823 307.225 222.929C320.336 225.977 335.635 229.501 347.654 235.1C365.115 243.337 381.013 254.541 394.645 268.215C396.828 270.406 402.609 276.467 403.225 279.266C405.204 288.264 401.633 299.248 399.252 307.669C389.533 342.032 366.498 372.418 335.6 390.461C331.742 392.711 323.495 397.832 319.498 398.999C315.448 400.455 301.797 405.993 298.501 405.188C290.607 403.152 284.045 398.327 277.609 393.861C241.799 369.011 233.823 325.915 212.898 290.678C202.8 273.673 184.067 265.576 165.803 260.534C156.061 257.845 146.181 255.94 136.03 255.219C134.201 255.078 124.328 254.841 123 253.12C121.213 240.773 127.141 226.988 131.204 215.498C133.193 210.078 136.643 203.922 139.164 198.702C147.217 185.565 158.067 171.372 169.917 161.393C177.772 154.777 191.231 146.007 200.499 142.08Z" fill="#FCFCFD"/>
<path d="M253.954 127.458C271.905 126.23 290.671 129.168 307.757 134.533C315.638 137.1 323.019 140.579 330.301 144.453C336.542 147.774 339.84 149.8 345.503 153.853C363.996 167.083 378.608 184.423 388.966 204.643C392.834 212.189 396.061 220.71 398.54 228.817C399.356 232.011 400.849 234.967 401.413 238.247C402.267 243.181 403.896 249.447 403.029 254.42C402.85 255.447 401.197 255.975 400.349 256.319C394.752 253.571 386.181 244.783 379.729 240.576C376.722 239.1 373.964 236.554 371.118 234.748C365.24 231.018 358.954 227.977 352.665 225.034C350.217 223.888 347.852 222.566 345.287 221.686C321.459 213.513 296.094 210.551 272.039 202.97C266.576 201.249 261.163 199.714 255.964 197.267C252.514 195.643 248.679 194.069 245.512 191.953C231.924 182.872 223.449 167.391 218.086 152.372C216.968 149.24 213.432 138.588 215.004 136.249C216.842 133.517 239.243 129.014 243.395 128.43C246.882 127.939 250.447 127.888 253.954 127.458Z" fill="#FCFCFD"/>
<path d="M124.656 265.547C125.673 265.511 126.691 265.512 127.708 265.548C135.708 265.881 150.718 268.124 158.384 270.018C161.613 270.818 164.812 271.918 167.984 272.922C175.782 275.386 184.167 278.131 190.811 283.063C207.258 295.278 215.963 321.396 224.072 339.789C225.057 342.024 226.309 344.143 227.357 346.35C230.763 353.516 234.005 360.519 238.217 367.278C243.072 375.07 248.55 381.97 254.744 388.729C256.346 390.477 257.784 392.355 259.577 393.912C261.612 395.678 263.679 397.573 265.819 399.2C268.299 401.089 271.167 402.713 273.251 405.057C274.005 405.905 274.62 406.614 274.562 407.8C273.898 409.411 272.791 409.659 271.199 410.395C255.95 411.227 239.998 409.686 225.267 405.616C221.687 404.626 218.168 403.288 214.663 402.063C210.881 400.738 206.972 399.521 203.382 397.731C164.958 378.564 140.942 351.758 127.21 310.971C123.064 298.697 121.039 285.803 121.224 272.849C121.262 271.129 121.169 268.057 121.888 266.604C122.746 265.885 123.554 265.811 124.656 265.547Z" fill="#FCFCFD"/>
<path d="M188.222 460.095C202.062 459.667 216.367 461.126 223.775 474.181C227.693 480.244 228.285 484.565 228.919 491.651C229.766 501.121 227.317 511.564 220.749 518.759C215.588 524.413 204.842 528.058 197.134 528.207C196.711 528.272 196.38 528.325 195.956 528.341C172.591 529.224 157.874 520.255 156.848 495.689C155.959 474.384 166.657 461.093 188.222 460.095ZM194.442 513.269C199.594 511.65 201.902 511.634 204.661 506.405C207.189 501.613 206.748 499.392 206.96 494.316C207.424 483.19 203.604 474.189 190.614 475.543C185.831 476.768 183.532 476.867 180.837 481.539C177.694 486.987 177.533 496.489 178.915 502.375C180.627 509.662 187.459 513.472 194.442 513.269Z" fill="#FCFCFD"/>
<path d="M311.275 461.088C321.318 460.853 331.751 461.578 341.868 461.243C348.786 461.013 354.377 461.005 360.099 465.377C370.457 473.295 371.029 490.27 362.274 499.635C357.063 505.129 351.094 505.907 343.984 505.993C340.482 505.977 333.963 505.811 330.654 506.488C330.956 511.69 331.186 522.013 330.242 526.864C326.36 528.004 314.812 527.172 309.611 527.643C309.039 514.994 309.365 500.171 309.357 487.354C309.336 481.721 309.357 476.088 309.413 470.456C309.443 468.235 309.405 464.023 309.667 461.92C310.371 461.128 310.079 461.377 311.275 461.088ZM330.656 476.669C330.651 480.771 330.846 486.026 330.721 489.97C334.375 490.174 338.906 490.353 342.577 490.155C347.55 488.665 346.461 480.913 344.54 477.349C341.523 476.177 337.796 476.193 334.583 476.412L330.656 476.669Z" fill="#FCFCFD"/>
<path d="M234.13 461.46C236.427 461.16 240.323 461.262 242.725 461.27L255.652 461.267C269.466 461.232 284.831 460.973 298.566 461.286C298.796 463.935 299.293 475.371 298.116 477.153C296.337 477.812 280.87 477.475 276.83 477.67L276.951 507.912C276.975 512.316 277.036 516.739 277.084 521.125C277.114 523.787 277.472 527.231 273.92 527.533C272.015 527.696 269.843 527.506 267.914 527.477C264.079 527.399 260.242 527.434 256.409 527.581C255.494 522.743 255.911 516.45 255.805 511.476C255.577 500.73 256.498 488.218 255.744 477.619C248.586 477.397 240.963 477.734 233.974 477.327C233.318 473.081 233.498 467.349 233.52 462.974C233.524 462.008 233.591 461.909 234.13 461.46Z" fill="#FCFCFD"/>
<path d="M36.7589 336.332C40.9126 335.848 40.9725 339.616 41.9428 342.824C46.178 356.826 51.5288 370.863 58.4309 383.806C73.9927 413.422 95.7358 439.347 122.188 459.825C128.762 464.874 135.337 469.238 142.419 473.52C144.786 474.949 146.18 477.199 144.114 479.645C143.508 479.765 142.662 479.939 142.118 479.647C138.855 477.903 135.593 475.473 132.428 473.463C109.18 458.557 88.4592 438.186 72.073 416.014C64.4422 404.843 56.7311 393.46 51.0069 381.149C48.3267 375.388 45.2468 368.862 43.0955 362.914C40.6483 356.144 37.8255 348.903 36.1543 341.946C35.7022 340.065 36.1145 338.098 36.7589 336.332Z" fill="#FCFCFD"/>
<path d="M487.266 336.199C491.814 336.576 491.196 340.79 490.113 344.173C486.528 355.36 482.855 365.541 477.847 376.194C458.113 419.185 425.746 455.143 385.066 479.273C384.333 479.572 383.974 479.519 383.193 479.527C380.93 478.376 382.276 474.767 383.637 473.964C424.786 449.628 456.762 411.49 475.849 367.851C477.855 363.267 479.637 358.033 481.48 353.34C483.62 347.887 484.174 341.296 487.266 336.199Z" fill="#FCFCFD"/>
<path d="M125.185 67.5133C132.501 67.4798 138.175 75.3078 139.991 81.7961C140.654 84.1641 139.656 87.5426 138.194 89.4855C136.402 91.8642 134.744 92.5447 131.934 92.998C129.142 93.0512 127.004 92.7127 124.566 91.1752C121.053 88.9597 117.381 82.6804 116.623 78.7005C116.132 76.1317 116.703 73.4731 118.207 71.3332C120.019 68.773 122.275 67.9898 125.185 67.5133ZM125.949 88.3651C128.945 89.2776 130.33 90.5836 132.878 89.5093C135.604 88.8553 136.355 86.0955 137.077 83.7018C134.877 77.5873 134.35 74.8516 128.538 71.2099C126.575 71.1283 125.406 71.0876 123.459 71.2503C116.706 76.0546 120.54 81.7364 124.684 86.9574C125.081 87.4484 125.503 87.918 125.949 88.3651Z" fill="#FCFCFD"/>
<path d="M37.4708 302.211C47.7524 300.913 52.2479 308.662 48.2264 317.797C44.3113 320.465 41.6073 322.127 36.7161 322.445C33.0664 322.587 28.8226 322.52 25.7738 320.131C22.6701 317.701 22.1315 309.88 24.9494 307.073C28.5094 303.525 32.5705 302.489 37.4708 302.211ZM26.5676 310.353C26.2237 312.638 26.1005 315.132 27.5287 317.144C28.3478 318.29 29.6062 319.044 31.0026 319.224C31.7166 319.312 33.2125 319.32 33.9072 319.29C37.555 319.272 41.2004 319.028 43.9842 316.318C46.4311 313.936 47.1924 309.612 44.4751 307.137C42.6894 305.516 40.6643 305.403 38.3578 305.382C34.2719 305.936 29.6773 306.241 27.0383 309.711C26.8786 309.923 26.7218 310.137 26.5676 310.353Z" fill="#FCFCFD"/>
<path d="M292.025 27.0775C296.527 26.6915 301.65 27.7307 303.215 32.6873C305.401 39.6149 304.001 50.7536 296.102 53.4551C291.284 53.6574 290.826 53.4064 286.404 51.3755C282.32 45.6287 282.641 34.0924 288.066 29.2422C289.152 28.2709 290.687 27.6539 292.025 27.0775ZM295.077 51.0921C298.277 48.6574 299.743 46.3514 300.181 42.3075C300.933 35.3604 300.96 29.7172 292.14 30.571C284.564 34.6481 285.083 52.518 295.077 51.0921Z" fill="#FCFCFD"/>
<path d="M401.186 73.0931C418.17 71.1433 415.164 93.2455 400.809 97.9257C398.605 98.0424 396.218 97.7695 394.276 96.7157C382.845 90.5146 392.727 75.6065 401.186 73.0931ZM393.163 92.2945C395.239 93.9683 396.406 94.8395 399.193 94.6698C400.619 94.5152 401.708 94.4068 402.882 93.4625C406.413 90.6297 410.084 85.707 409.425 80.9444C409.169 79.0933 408.468 78.2229 407.43 76.7863C405.536 75.8979 404.875 75.4422 402.762 75.7114C396.51 78.738 390.895 84.885 393.163 92.2945Z" fill="#FCFCFD"/>
<path d="M496.619 250.592C497.552 250.548 502.672 250.07 502.975 251.17C506.797 265.129 498.117 271.335 484.725 268.172C482.483 267.28 480.985 266.698 479.439 264.645C477.074 261.51 477.411 254.221 478.051 250.554C483.88 251.116 490.688 250.717 496.619 250.592ZM487.023 264.761C490.503 264.877 492.197 264.569 495.591 263.526C499.104 261.704 499.379 259.23 499.473 255.544C494.511 255.169 490.118 255.344 485.279 255.102C483.963 255.177 483.66 254.97 482.732 255.668C480.991 259.264 484.064 262.946 487.023 264.761Z" fill="#FCFCFD"/>
<path d="M193.931 34.5716C199.088 34.3153 202.512 38.0319 204.156 42.6064C205.672 46.8251 206.503 51.6492 204.53 55.8564C202.537 60.1071 199.675 59.5551 195.921 61.0072C192.363 62.0631 191.26 62.2654 190.134 58.3644C188.611 53.0904 187.812 47.5676 185.698 42.4887C185.161 41.1992 184.494 39.6746 184.593 38.2577C186.242 35.8003 190.937 35.3189 193.931 34.5716ZM193.568 58.207C194.72 58.0053 196.427 57.7607 197.516 57.4747C204.114 54.2062 203.328 49.3328 200.973 43.1028C199.868 40.179 196.854 37.9639 193.593 38.0547C191.503 38.521 190.41 38.7752 188.428 39.5274C189.828 44.4153 190.952 49.3671 192.482 54.2233C192.886 55.5074 193.288 56.8988 193.568 58.207Z" fill="#FCFCFD"/>
<path d="M456.866 125.729C458.798 126.19 461.454 130.957 462.832 132.587C463.875 134.211 464.006 137.345 463.447 139.043C461.205 145.845 451.872 151.052 445.048 149.229C440.387 146.573 439.229 144.468 436.749 139.932C439.103 136.216 443.747 134.612 447.228 132.151C450.507 129.833 453.287 127.601 456.866 125.729ZM441.353 140.538C442.546 143.404 443.033 145.213 445.877 146.708C450.071 147.108 452.549 146.404 455.941 143.773C460.515 140.224 461.861 134.785 457.599 130.353C457.316 130.057 457.062 129.61 456.684 129.452C455.638 130.719 452.92 132.038 451.39 132.924C447.372 135.251 444.405 136.907 441.353 140.538Z" fill="#FCFCFD"/>
<path d="M319.044 32.354C319.456 32.3602 320.354 32.4241 320.726 32.5285C325.707 33.9335 333.837 33.8907 334.723 40.4945C334.91 41.8835 334.57 43.3541 334.316 44.711C333.353 46.0157 328.856 48.8125 328.762 49.258C328.217 51.8163 330.935 60.2124 328.139 61.5963C325.122 60.9977 325.443 57.5227 325.354 55.1875C325.279 52.7031 325.151 51.1851 324.782 48.7346C321.96 47.2672 321.042 47.4181 317.794 47.154C317.364 49.4084 316.053 57.6423 313.292 57.8711C312.682 57.4601 312.484 57.3784 312.286 56.6241C311.917 55.2151 317.907 33.9124 319.044 32.354ZM319.076 42.5428C322.211 44.9248 324.073 46.1447 328.235 45.658C329.883 44.776 330.351 43.7518 330.873 41.9916C332.122 37.7556 324.442 36.2358 321.577 35.3164C320.831 37.7318 319.654 40.5031 319.076 42.5428Z" fill="#FCFCFD"/>
<path d="M43.6118 272.058C44.4986 272.095 44.7188 272.323 44.9298 273.093C44.0387 276.537 37.0585 278.645 34.1833 280.631C34.144 282.702 34.2432 285 34.2253 287.141C36.6214 287.181 43.6551 286.938 45.2797 288.072C45.5299 288.867 45.4277 288.974 45.2442 289.785C44.753 290.258 44.6944 290.44 43.9192 290.451C38.6254 290.542 33.4709 290.941 28.194 291.428C25.7167 291.454 23.2359 291.572 20.7471 291.604C19.258 287.591 19.4005 282.284 19.5066 278.003C21.1929 275.341 23.1506 273.042 26.7249 273.192C29.4764 273.307 31.0165 275.172 32.7805 277.037C37.0452 275.453 39.6703 274.244 43.6118 272.058ZM22.6799 288.313C24.6027 288.206 26.3716 288.179 28.1964 287.489C29.0543 287.368 29.9157 287.382 30.512 286.828C30.9312 284.73 30.6374 280.085 29.58 278.105C28.8844 276.802 25.6438 277.187 24.2872 277.302C21.1234 280.061 22.1466 284.487 22.6799 288.313Z" fill="#FCFCFD"/>
<path d="M473.286 221.604C477.16 221.148 487.938 223.439 492.384 223.868C494.283 224.167 500.805 225.811 501.482 227.682C502.809 231.355 493.473 234.428 490.993 235.731C487.619 237.522 481.443 241.397 477.588 241.806C477.371 241.829 476.777 241.492 476.686 241.191C475.729 238.014 478.808 236.473 481.089 235.259C480.367 232.733 480.271 229.851 479.837 227.824C479.273 225.172 471.389 227.42 473.286 221.604ZM485.193 233.813C487.191 233.033 489.037 232.425 490.779 231.158C492.215 229.927 492.667 229.686 494.299 228.784C490.624 227.909 488.35 227.514 484.589 226.971C484.583 229.265 484.784 231.555 485.193 233.813Z" fill="#FCFCFD"/>
<path d="M490.418 193.765C491.239 193.623 491.185 193.653 491.969 193.96C492.215 194.202 492.574 194.547 492.657 194.904C493.66 199.186 496.584 203.471 494.521 207.865C493.518 210 491.557 211.454 489.492 212.085C487.523 212.694 485.388 212.438 483.62 211.383C480.688 209.651 479.797 206.988 479.022 203.962C478.069 199.537 471.569 205.037 468.859 204.475C467.957 203.467 468 201.46 468.629 200.308C470.151 199.207 473.241 198.975 474.977 198.227C479.977 196.071 485.153 195.161 490.418 193.765ZM485.308 207.228C486.02 207.224 488.015 207.265 488.591 206.998C491.549 205.622 491.341 202.189 489.84 199.794C489.297 199.518 489.324 199.508 488.727 199.426C486.689 199.523 485.14 199.934 483.147 200.384C483.379 202.605 483.329 205.9 485.308 207.228Z" fill="#FCFCFD"/>
<path d="M478.896 279.129C481.606 279.175 502.258 280.687 503.1 281.631C503.408 284.203 502.841 294.17 501.947 296.319C500.875 297.108 499.082 297.226 497.98 296.455C497.785 295.575 498.438 287.903 498.339 285.436L495.661 285.08C494.404 284.92 493.526 284.722 492.526 285.5L492.488 286.512C492.205 289.883 493.558 295.069 488.853 294.823C485.857 293.084 489.42 287.957 487.804 284.69C486.434 283.831 483.749 283.983 482.098 283.97C481.673 286.389 481.812 293.397 480.785 294.339C474.835 299.805 476.75 287.06 476.815 285.961C476.97 283.215 477.063 280.245 478.896 279.129Z" fill="#FCFCFD"/>
<path d="M65.8276 124.135C66.0294 124.149 66.2313 124.163 66.433 124.176C72.8327 125.832 79.2814 127.144 85.2111 130.181C86.6669 130.926 90.0606 131.38 90.9998 132.598C91.2074 133.594 91.3037 133.174 90.9292 133.933C89.3211 134.982 85.7865 133.756 83.9474 133.944C82.0582 134.138 80.7998 138.293 79.1492 140.243C79.0513 140.286 78.8084 140.538 78.7159 140.626C78.7734 142.698 82.1992 145.49 81.1058 147.95C80.3183 148.528 80.7391 148.393 79.8301 148.454C78.5158 147.775 64.9309 128.917 64.1142 127.256C64.5361 125.841 64.7616 125.125 65.8276 124.135ZM76.1879 138.96L77.9917 135.891C79.352 134.52 79.9916 133.786 81.1698 132.255C77.0223 131.166 73.074 129.033 69.2826 128.014C70.9931 133.653 73.7246 134.443 76.1879 138.96Z" fill="#E4E8ED"/>
<path d="M48.3521 215.78C49.0407 215.7 49.1509 215.725 49.847 215.743C52.4213 218.567 45.8308 219.512 43.9125 220.251C43.6538 224.176 43.3488 225.189 42.298 228.978C43.8756 230.059 48.0263 232.684 47.2489 234.706L46.5729 234.906C44.1393 234.551 38.9183 231.307 36.7423 229.86C33.1611 227.683 25.4382 225.153 23.4214 221.587C23.4252 221.028 23.394 220.834 23.764 220.375C25.9955 217.608 44.1003 216.157 48.3521 215.78ZM27.9933 221.614C29.9323 222.561 31.3185 223.34 33.0426 224.67C35.6562 226.382 36.8111 226.871 39.7559 227.933C39.9597 226.103 40.9121 221.588 40.3706 220.256C39.7382 220.207 39.952 220.101 39.5341 220.356C35.1862 220.474 32.2984 220.906 27.9933 221.614Z" fill="#FCFCFD"/>
<path d="M349.302 41.1172C349.915 41.396 349.832 41.3703 350.383 41.7701C351.314 43.3887 353.938 60.4874 353.954 62.6125C356.854 58.4696 358.373 52.147 361.177 47.8412C361.527 47.3033 362.311 47.0697 362.956 47.0414L363.36 47.4342C364.13 51.3566 358.793 59.02 357.303 62.8138C356.367 65.1952 355.72 68.5967 354.585 70.8633C353.828 71.3008 352.983 71.118 352.065 71.0651C350.725 69.4799 350.68 64.4532 350.442 62.2336L348.936 49.0148C347.1 54.0313 343.31 58.4605 342.456 64.0928C342.261 65.3769 340.324 65.7828 339.145 65.4098C338.866 65.048 338.46 64.5956 338.711 64.1008C340.934 59.7125 345.931 43.5326 349.302 41.1172Z" fill="#FCFCFD"/>
<path d="M33.954 184.007C38.4285 183.889 51.2985 189.445 56.3951 190.44C57.0487 190.568 57.3732 190.928 57.7124 191.444C57.8293 192.584 57.8285 192.522 57.4331 193.604C56.1704 195.129 48.6707 195.495 46.139 196.244C43.0307 197.165 40.0771 198.456 36.9668 199.087C41.622 200.432 46.5849 201.873 51.0984 203.666C52.5312 204.236 53.3744 205.086 54.2053 206.361C53.7088 206.827 53.4143 207.11 52.7203 207.09C50.8057 207.035 30.0283 200.141 29.4202 199.299C29.0024 198.721 29.0912 198.509 29.2423 197.875C31.3164 195.551 35.618 195.455 38.5512 194.874C42.05 194.153 45.5063 193.24 48.9043 192.137C47.2133 191.083 45.4293 190.186 43.5741 189.459C41.1755 188.539 35.4979 187.161 33.9179 185.695C33.5894 184.761 33.6635 185.11 33.954 184.007Z" fill="#FCFCFD"/>
<path d="M26.3588 242.505C27.6512 242.36 28.6009 242.237 29.4668 243.263C29.1864 245.949 23.6715 246.493 22.5515 248.798C22.4823 248.887 22.413 248.975 22.3438 249.064C22.0233 251.625 21.7662 254.317 23.8064 256.252C28.0894 260.315 34.8981 259.575 39.9878 258.145C42.6862 255.001 42.7319 253.917 42.1734 249.815C41.8018 247.084 38.3536 246.403 36.1083 246.872C34.6517 248.373 35.7437 251.561 33.2786 252.132C32.6692 251.871 32.1331 251.797 32.0293 251.1C31.5745 248.05 31.5735 245.345 32.6842 242.577C34.3484 242.358 43.9256 243.235 44.8688 244.229C45.7728 248.167 45.5716 255.099 43.7493 259.065C42.7146 259.872 41.0605 261.021 39.8005 261.232C35.2095 262.002 27.4436 262.382 23.4178 259.852C21.2479 258.483 19.7282 256.29 19.2085 253.776C18.0432 248.402 20.9637 243.669 26.3588 242.505Z" fill="#FCFCFD"/>
<path d="M154.124 49.3477L155.292 49.4964C156.466 50.2042 165.794 68.8389 167.039 71.6789C166.812 72.4785 167.017 72.1186 166.271 72.7045C163.405 73.1268 159.827 69.2279 157.363 67.8847C154.216 66.1687 150.95 64.7473 147.777 63.0945C149.823 68.0725 151.953 72.7316 154.462 77.4979C154.827 78.1926 154.384 78.9624 154.009 79.5722C153.566 79.5133 152.3 79.4339 151.999 78.8455C150.06 75.0675 148.26 71.261 146.195 67.5422C145.295 65.9212 140.155 57.1674 142.266 56.1538C145.883 57.0314 155.817 63.9534 161.34 66.2594C158.957 62.8387 155.8 56.1765 154.347 52.2774C153.842 50.9216 153.812 50.7998 154.124 49.3477Z" fill="#FCFCFD"/>
<path d="M424.714 92.935C431.434 92.2695 434.096 95.652 436.123 101.518L435.125 105.073C433.825 105.647 433.285 106.108 431.974 105.472C431.118 104.046 431.83 102.09 432.21 100.443C430.698 97.7878 429.382 94.8733 425.816 95.9506C422.531 97.2063 424.524 103.021 425.792 104.951C429.933 111.239 426.94 115.283 420.313 117.417C417.809 117.129 414.439 114.983 412.863 113.042C411.397 111.206 410.736 108.854 411.031 106.523C411.646 101.523 416.801 101.296 414.819 106.796C413.516 110.405 417.502 115.458 421.33 113.896C422.181 113.549 422.855 112.875 423.202 112.025C424.569 108.63 420.752 102.623 419.297 99.3561C420.177 95.9712 421.26 94.3293 424.714 92.935Z" fill="#FCFCFD"/>
<path d="M376.837 54.7402C378.094 54.7772 380.668 56.1769 381.719 56.9047C383.924 58.4317 389.1 60.4426 389.977 62.9733C389.753 63.7844 389.983 63.4475 389.145 63.9267C387.203 63.9307 380.852 59.9331 378.159 58.6442C375.992 61.5314 375.714 62.066 374.785 65.5638L375.104 65.8204C377.327 67.6276 384.073 69.3992 382.273 72.7076C379.065 73.8774 373.739 65.9726 371.709 69.4139C370.604 71.3295 369.737 72.8791 368.788 74.8683C372.062 78.8603 373.48 78.2954 377.386 81.2425C378.006 81.7094 378.199 82.2703 378.22 83C377.586 83.6456 377.955 83.4492 377.083 83.6285C375.058 83.1016 364.7 77.8194 364.374 75.8829C364.818 73.5855 375.005 56.133 376.837 54.7402Z" fill="#FCFCFD"/>
<path d="M227.545 27.4021L229.311 27.3384C230.292 27.8291 229.902 27.4901 230.523 28.3991C230.538 28.7365 230.633 29.0576 230.446 29.357C229.467 30.9226 220.387 31.8947 218.096 32.3033C218.322 34.8357 218.55 36.9145 218.929 39.4388C221.259 39.4645 229.32 38.4252 230.638 39.5996L230.558 40.0986C228.816 41.9249 223.467 41.8489 220.509 42.7442L220.083 42.8758C220.745 46.3281 220.345 47.5467 221.65 51.1397C223.706 51.4017 225.788 51.3733 227.837 51.0554C229.82 50.509 233.379 48.9876 234.492 51.357C233.395 53.3986 221.268 54.5497 218.582 54.7796C217.001 50.1949 214.745 34.2301 214.819 29.3134C218.872 28.6731 223.533 27.7892 227.545 27.4021Z" fill="#FCFCFD"/>
<path d="M472.636 151.958C473.562 151.863 474.773 151.957 475.161 152.888C476.304 155.62 481.156 162.941 480.683 165.509C480.081 166.294 480.458 166.051 479.535 166.294C479.107 166.17 478.516 165.944 478.299 165.522C476.419 161.843 475.073 158.676 472.588 155.286C470.541 156.328 468.292 158.148 465.986 159.447C466.898 161.291 470.903 167.482 469.281 169.28C467.037 168.812 464.381 163.19 463.476 161.176C462.414 160.962 459.801 161.794 458.723 162.152C452.268 164.294 461.486 173.696 459.943 176.052C459.45 176.093 458.749 176.18 458.426 175.763C456.77 173.622 452.032 165.392 451.532 163.223C452.059 161.819 470.071 153.294 472.636 151.958Z" fill="#FCFCFD"/>
<path d="M89.0761 98.4531C91.5469 98.169 95.1543 98.7635 96.5983 101.016C96.7409 102.183 96.823 101.641 96.364 102.706C94.1888 104.173 90.9639 100.063 88.0574 101.751C85.0819 103.48 83.5161 106.713 85.2031 109.808C87.551 114.116 94.0738 121.616 99.5027 119.25C101.706 118.29 102.46 115.653 103.215 113.59C102.708 111.743 101.46 109.002 101.475 107.248C103.243 106.664 104.718 107.908 105.504 109.432C107.792 113.869 105.485 119.787 100.985 121.773C93.9357 124.884 85.2753 117.959 82.5975 111.688C81.5389 109.209 81.3014 106.019 82.4854 103.526C83.9257 100.405 86.0966 99.6134 89.0761 98.4531Z" fill="#FCFCFD"/>
<path d="M54.0306 142.211C54.4675 142.297 54.8987 142.316 55.1486 142.744C58.4106 148.335 61.6272 153.958 65.0214 159.47C65.7932 160.724 66.9919 161.857 68.0298 162.902C69.564 160.406 72.4269 153.298 75.372 153.213C76.0795 153.802 75.8425 153.446 76.125 154.306C75.8605 156.974 73.3228 159.698 72.0251 162.092C70.9267 164.119 70.121 166.139 69.0541 168.156C68.4803 168.637 68.7374 168.496 67.9525 168.621C65.3317 167.871 56.5385 151.534 54.4177 148.04C51.6832 150.768 51.5141 152.451 49.473 155.54C48.8687 156.455 48.5046 156.575 47.5977 156.713C46.7628 156.353 47.0646 156.644 46.6879 155.786C46.8621 152.869 51.9245 144.589 54.0306 142.211Z" fill="#FCFCFD"/>
<path d="M475.218 305.229C478.056 305.274 496.26 308.817 498.769 309.698C499.73 310.573 500.021 312.595 499.537 313.719C497.566 314.851 489.875 312.705 487.17 312.207C484.963 311.9 480.851 310.763 478.583 310.171C477.663 313.206 477.352 315.844 476.617 318.849C476.223 320.446 474.067 321.685 472.494 320.722C470.702 318.509 473.797 307.241 475.218 305.229Z" fill="#FCFCFD"/>
<path d="M257.116 25.4495L257.506 25.4273C259.82 25.3066 273.772 25.3986 275.046 26.5506L274.974 27.0293C273.738 27.9771 270.062 28.0603 268.363 28.1363C267.692 34.2307 267.767 39.4492 267.745 45.5554C267.687 47.7907 267.962 50.1973 265.84 51.5571C263.281 51.5791 263.858 46.0801 264.009 44.3612C264.479 38.9738 264.375 33.6634 264.329 28.2666C262.165 28.0721 258.757 28.4309 257.174 27.3341C256.758 26.3493 256.879 26.6801 257.116 25.4495Z" fill="#FCFCFD"/>
<path d="M40.7558 167.958C44.0478 169.631 47.4254 171.13 50.875 172.447C54.0566 173.671 62.6865 176.067 63.4693 179.389C63.2737 180.389 63.5048 179.983 62.7735 180.663C56.8424 179.597 48.9249 173.968 42.8553 172.168C41.7903 171.852 40.3987 171.004 39.9948 169.906C40.0178 168.881 40.121 168.829 40.7558 167.958Z" fill="#FCFCFD"/>
<path d="M101.49 84.9487C104.626 85.4242 115.66 99.0439 118.443 102.275C118.631 103.714 118.752 103.998 118.39 105.353C118.094 105.322 117.971 105.32 117.703 105.263C116.134 104.93 103.252 90.007 101.959 87.8415C101.265 86.6786 101.183 86.2259 101.49 84.9487Z" fill="#FCFCFD"/>
<path d="M503.234 226.063C505.711 226.4 507.346 227.177 506.575 229.985C504.628 229.432 502.504 228.419 503.234 226.063Z" fill="#FCFCFD"/>
<path d="M118.29 63.7466C119.273 64.031 118.895 63.7642 119.506 64.5081C119.879 66.0716 119.631 67.4319 118.924 68.8565C116.873 67.6067 117.414 65.5503 118.29 63.7466Z" fill="#C5C9D4"/>
</svg>
