<svg width="239" height="63" viewBox="0 0 239 63" fill="none" xmlns="http://www.w3.org/2000/svg">
<path d="M124.002 4.33997C124.727 4.34004 125.453 4.34282 126.179 4.34772C126.56 4.34841 126.941 4.3491 127.334 4.34981C128.556 4.35255 129.779 4.35868 131.001 4.36489C131.828 4.36733 132.655 4.36956 133.482 4.37156C135.513 4.37696 137.544 4.38539 139.576 4.39541C139.206 4.93694 138.835 5.47721 138.463 6.01696C138.256 6.31796 138.05 6.61896 137.837 6.92908C136.933 8.1579 135.888 9.20211 134.796 10.2559C134.638 10.417 134.48 10.5782 134.318 10.7442C133.763 10.6812 133.208 10.6182 132.636 10.5532C128.758 10.2166 125.81 10.5153 122.726 13.1103C120.078 15.6169 117.651 18.3307 115.227 21.0611C113.951 22.4624 112.667 23.8572 111.378 25.2466C110.582 26.1086 109.793 26.9786 109.014 27.857C108.484 28.4413 108.484 28.4413 107.944 29.0375C107.482 29.5574 107.482 29.5574 107.01 30.0879C106.116 30.7675 106.116 30.7675 105.101 30.6803C103.931 30.1572 103.282 29.4611 102.411 28.5088C100.809 26.7985 99.1413 25.256 97.351 23.7548C96.5556 22.9535 96.5556 22.9535 95.5996 21.0001C97.0193 19.7108 98.4389 18.4215 99.9016 17.0931C102.142 18.4665 103.398 19.6049 105.16 21.4884C106.626 20.8358 107.462 20.1751 108.446 18.894C109.756 17.2614 111.216 16.0009 112.808 14.6512C113.616 13.6845 114.413 12.7078 115.198 11.721C115.984 10.8971 116.781 10.0827 117.588 9.27913C118.012 8.82586 118.435 8.37259 118.872 7.90558C119.978 6.83727 119.978 6.83727 120.934 6.83727C121.081 6.52502 121.229 6.21276 121.382 5.89105C122.132 4.40341 122.132 4.40341 124.002 4.33997Z" fill="white"/>
<path d="M106.594 36.6279C108.329 36.6279 110.064 36.6279 111.852 36.6279C111.896 37.2468 111.94 37.8656 111.985 38.5032C112.28 41.2161 113.109 43.6331 114.033 46.1817C114.191 46.6277 114.348 47.0738 114.51 47.5333C114.895 48.6208 115.283 49.7064 115.676 50.7907C116.958 48.8266 117.602 46.7514 118.365 44.5335C118.598 43.8814 118.598 43.8814 118.835 43.2162C118.982 42.7916 119.129 42.3669 119.28 41.9294C119.481 41.3526 119.481 41.3526 119.686 40.7642C120.093 39.2911 120.093 39.2911 119.978 36.6279C121.871 36.6279 123.764 36.6279 125.714 36.6279C125.758 37.2468 125.802 37.8656 125.847 38.5032C126.142 41.2161 126.971 43.6331 127.895 46.1817C128.053 46.6277 128.21 47.0738 128.372 47.5333C128.757 48.6208 129.145 49.7064 129.538 50.7907C132.575 43.9428 132.575 43.9428 133.362 36.6279C135.097 36.6279 136.832 36.6279 138.62 36.6279C138.62 37.1114 138.62 37.5949 138.62 38.093C138.305 38.093 137.989 38.093 137.664 38.093C137.584 38.3794 137.504 38.6657 137.421 38.9607C136.762 41.2634 136.052 43.534 135.254 45.7906C135.086 46.2662 134.918 46.7419 134.745 47.2319C134.398 48.2073 134.048 49.1815 133.696 50.1545C132.783 52.7575 132.175 54.859 132.406 57.6279C130.513 57.6279 128.62 57.6279 126.67 57.6279C126.828 56.9833 126.986 56.3386 127.148 55.6744C126.82 54.2401 126.82 54.2401 126.254 52.7061C125.96 51.8562 125.96 51.8562 125.661 50.9891C125.347 50.1052 125.347 50.1052 125.027 49.2035C124.82 48.6067 124.612 48.0099 124.399 47.395C123.886 45.9205 123.368 44.448 122.846 42.9768C121.735 45.16 120.962 47.4377 120.157 49.7529C120.002 50.1854 119.847 50.6179 119.687 51.0635C119.54 51.4859 119.394 51.9084 119.243 52.3436C119.108 52.725 118.974 53.1064 118.836 53.4994C118.429 54.9658 118.429 54.9658 118.544 57.6279C116.651 57.6279 114.758 57.6279 112.808 57.6279C112.808 57.1444 112.808 56.661 112.808 56.1628C113.124 56.1628 113.439 56.1628 113.764 56.1628C113.627 55.7889 113.49 55.4151 113.348 55.0299C112.831 53.6195 112.315 52.2086 111.801 50.7974C111.471 49.8956 111.14 48.9944 110.809 48.0932C109.71 45.0757 108.68 42.0927 107.917 38.9665C107.796 38.6783 107.675 38.39 107.55 38.093C107.077 37.9319 106.604 37.7707 106.116 37.6047C106.274 37.2823 106.432 36.96 106.594 36.6279Z" fill="white"/>
<path d="M189.288 36.6279C191.473 36.5794 193.658 36.5441 195.844 36.5206C196.586 36.5109 197.328 36.4976 198.07 36.4806C199.142 36.4567 200.213 36.4457 201.285 36.4372C201.613 36.4271 201.94 36.417 202.278 36.4066C204.882 36.4054 206.309 37.1269 208.408 38.5814C209.745 40.4874 209.68 42.6731 209.364 44.9303C208.167 47.0949 206.73 47.7862 204.584 48.8372C205.269 49.9478 205.956 51.0565 206.645 52.1643C206.839 52.4781 207.032 52.7919 207.231 53.1153C207.42 53.419 207.61 53.7228 207.805 54.0357C207.978 54.3145 208.15 54.5933 208.328 54.8805C208.923 55.7268 209.582 56.4233 210.32 57.1396C209.842 57.6279 209.842 57.6279 208.645 57.6756C208.163 57.67 207.68 57.6643 207.183 57.6585C206.7 57.6541 206.216 57.6497 205.717 57.6451C205.156 57.6366 205.156 57.6366 204.584 57.6279C204.54 57.2823 204.497 56.9367 204.452 56.5806C204.041 54.9226 203.338 53.8228 202.403 52.4085C200.76 49.9123 200.76 49.9123 200.76 48.8372C198.394 48.8372 196.028 48.8372 193.59 48.8372C193.59 51.2547 193.59 53.6721 193.59 56.1628C193.906 56.1628 194.221 56.1628 194.546 56.1628C194.546 56.6463 194.546 57.1298 194.546 57.6279C192.811 57.6279 191.076 57.6279 189.288 57.6279C189.288 57.1445 189.288 56.661 189.288 56.1628C189.604 56.1628 189.919 56.1628 190.244 56.1628C190.244 50.1998 190.244 44.2368 190.244 38.0931C189.929 38.0931 189.613 38.0931 189.288 38.0931C189.288 37.6096 189.288 37.1261 189.288 36.6279ZM193.59 39.5582C193.59 41.4921 193.59 43.4261 193.59 45.4186C195.393 45.4581 197.195 45.4872 198.997 45.5102C199.766 45.5286 199.766 45.5286 200.55 45.5474C201.041 45.5521 201.533 45.5569 202.039 45.5617C202.492 45.5694 202.945 45.5771 203.412 45.585C204.6 45.5094 204.6 45.5094 205.464 44.7859C206.184 43.8813 206.184 43.8813 205.958 42.2137C205.704 40.4107 205.704 40.4107 204.106 39.5582C202.949 39.4237 202.949 39.4237 201.666 39.4628C201.196 39.4659 200.726 39.4691 200.242 39.4723C199.508 39.4846 199.508 39.4846 198.758 39.4971C198.016 39.5037 198.016 39.5037 197.258 39.5105C196.035 39.522 194.813 39.5395 193.59 39.5582Z" fill="white"/>
<path d="M30.1143 36.6279C32.4804 36.6279 34.8465 36.6279 37.2843 36.6279C37.1265 37.2726 36.9688 37.9172 36.8063 38.5814C37.4735 39.3852 37.4735 39.3852 38.2403 40.0465C38.2403 40.3689 38.2403 40.6912 38.2403 41.0233C38.5557 41.0233 38.8712 41.0233 39.1963 41.0233C39.8723 41.7914 40.5136 42.5916 41.1381 43.4041C43.2596 46.1557 45.4853 48.6511 47.8003 51.2791C47.958 46.9277 48.1157 42.5763 48.2783 38.093C47.9628 38.093 47.6473 38.093 47.3223 38.093C47.3223 37.6096 47.3223 37.1261 47.3223 36.6279C48.8997 36.6279 50.4771 36.6279 52.1023 36.6279C52.0246 37.2896 51.947 37.9512 51.867 38.6329C51.5459 41.9219 51.5543 45.1989 51.5645 48.5015C51.5627 49.1112 51.5608 49.7209 51.5589 50.3491C51.5598 51.2297 51.5598 51.2297 51.5608 52.128C51.5616 52.9215 51.5616 52.9215 51.5624 53.7311C51.5953 55.3627 51.5953 55.3627 52.1023 57.6279C50.2094 57.6279 48.3165 57.6279 46.3663 57.6279C46.3663 56.8221 46.3663 56.0163 46.3663 55.1861C45.8867 54.3362 45.8867 54.3362 45.1582 53.6408C44.8996 53.3674 44.641 53.0941 44.3746 52.8124C44.0952 52.528 43.8159 52.2436 43.5281 51.9506C42.9568 51.3477 42.3867 50.7436 41.8178 50.1383C41.5353 49.8388 41.2528 49.5393 40.9617 49.2307C39.4351 47.5676 38.0571 45.7891 36.6662 44.0069C35.8614 42.954 35.8614 42.954 34.8943 42C34.7365 46.6737 34.5788 51.3475 34.4163 56.1628C34.7317 56.1628 35.0472 56.1628 35.3723 56.1628C35.3723 56.6463 35.3723 57.1298 35.3723 57.6279C33.6371 57.6279 31.902 57.6279 30.1143 57.6279C30.1143 57.1444 30.1143 56.661 30.1143 56.1628C30.4297 56.1628 30.7452 56.1628 31.0703 56.1628C31.0703 50.1998 31.0703 44.2368 31.0703 38.093C30.7548 38.093 30.4393 38.093 30.1143 38.093C30.1143 37.6096 30.1143 37.1261 30.1143 36.6279Z" fill="white"/>
<path d="M183.552 35.6511C184.538 35.8648 184.538 35.8648 185.464 36.1395C185.464 37.4288 185.464 38.7181 185.464 40.0465C184.833 40.2076 184.202 40.3688 183.552 40.5348C183.552 40.2125 183.552 39.8902 183.552 39.5581C178.978 39.5581 174.403 39.5581 169.69 39.5581C169.69 41.4921 169.69 43.426 169.69 45.4186C172.687 45.4186 175.684 45.4186 178.772 45.4186C178.772 45.0962 178.772 44.7739 178.772 44.4418C179.403 44.4418 180.034 44.4418 180.684 44.4418C180.684 46.0534 180.684 47.6651 180.684 49.3255C180.053 49.1644 179.422 49.0032 178.772 48.8372C178.049 48.7682 177.324 48.7177 176.599 48.6826C176.195 48.6622 175.792 48.6417 175.376 48.6206C174.959 48.6014 174.541 48.5822 174.112 48.5625C173.475 48.5308 173.475 48.5308 172.825 48.4986C171.78 48.4469 170.735 48.3976 169.69 48.3488C169.69 50.4439 169.69 52.539 169.69 54.6976C171.629 54.639 173.569 54.5791 175.508 54.5158C176.167 54.4947 176.826 54.4743 177.485 54.4548C178.435 54.4264 179.384 54.3951 180.333 54.3638C181.189 54.3369 181.189 54.3369 182.063 54.3095C183.639 54.2488 183.639 54.2488 185.464 53.7209C185.464 55.3325 185.464 56.9441 185.464 58.6046C184.833 58.4434 184.202 58.2823 183.552 58.1162C182.163 58.0423 180.782 57.991 179.392 57.9617C178.992 57.9516 178.591 57.9414 178.179 57.931C176.903 57.8991 175.627 57.8703 174.351 57.8415C173.484 57.8204 172.618 57.7991 171.752 57.7776C169.63 57.7254 167.509 57.6759 165.388 57.6279C165.388 56.1627 165.388 56.1627 165.866 55.6744C165.943 54.3732 165.99 53.0833 166.017 51.7808C166.027 51.3912 166.037 51.0017 166.047 50.6003C166.079 49.3513 166.107 48.1022 166.135 46.8532C166.156 46.0084 166.177 45.1636 166.198 44.3188C166.249 42.2436 166.297 40.1683 166.344 38.093C165.871 37.9318 165.398 37.7707 164.91 37.6046C165.391 36.8799 165.391 36.8799 166.344 36.1395C167.643 36.0176 168.831 35.9806 170.127 36.0136C170.679 36.0184 170.679 36.0184 171.243 36.0234C172.418 36.0348 173.593 36.0562 174.769 36.0784C175.948 36.0955 177.126 36.1106 178.305 36.1231C179.039 36.1314 179.773 36.1427 180.506 36.1572C181.362 36.1696 182.218 36.1571 183.074 36.1395C183.232 35.9783 183.39 35.8172 183.552 35.6511Z" fill="white"/>
<path d="M24.8558 38.093C24.5179 40.4545 23.73 41.3793 21.9878 42.9767C21.8991 42.6745 21.8104 42.3724 21.7189 42.061C20.8836 40.7993 20.1339 40.5397 18.7034 40.201C15.4889 39.7129 12.8645 39.6876 10.0378 41.5116C10.0378 42.3174 10.0378 43.1232 10.0378 43.9535C12.273 44.8428 14.2996 45.0572 16.6701 45.1133C19.6832 45.2498 21.8939 45.5449 24.3778 47.3721C25.5457 49.0904 25.463 50.7758 25.1415 52.7804C24.4835 54.9467 22.8644 55.9115 21.0617 57.0479C16.9002 58.6597 12.2467 57.8715 8.27145 56.1494C7.26851 55.717 6.31887 55.4233 5.25781 55.186C5.50849 53.342 5.8919 52.1465 7.16981 50.7907C7.64303 50.7907 8.11625 50.7907 8.60381 50.7907C8.7215 51.0954 8.83919 51.4001 8.96045 51.714C9.87765 53.2904 11.0009 53.4491 12.6631 53.946C15.2152 54.5065 17.3384 54.4653 19.8368 53.6904C21.2186 52.814 21.2186 52.814 21.3455 50.9757C21.3997 50.4312 21.4539 49.8866 21.5098 49.3256C21.1918 49.3036 20.8738 49.2817 20.5461 49.2591C19.0942 49.1554 17.6432 49.0422 16.1921 48.9288C15.6917 48.8944 15.1914 48.8601 14.6759 48.8248C11.6156 48.5774 8.98856 48.348 6.78144 45.9375C5.8432 44.2725 5.63613 43.4554 6.03456 41.5421C7.0043 39.3354 8.17631 37.985 10.3851 37.0571C15.1887 35.7394 20.1928 36.6025 24.8558 38.093Z" fill="white"/>
<path d="M147.224 36.6279C149.274 36.6279 151.325 36.6279 153.438 36.6279C153.482 37.115 153.526 37.602 153.571 38.1038C153.868 40.2082 154.659 41.9031 155.602 43.7818C155.852 44.2931 155.852 44.2931 156.107 44.8148C156.458 45.5292 156.811 46.2425 157.167 46.9546C157.712 48.0478 158.249 49.1451 158.784 50.2432C159.127 50.9385 159.47 51.6335 159.814 52.3283C159.975 52.6569 160.136 52.9855 160.301 53.3241C161.089 55.0474 161.089 55.0474 162.52 56.1628C162.52 56.6463 162.52 57.1298 162.52 57.6279C160.627 57.6279 158.734 57.6279 156.784 57.6279C156.675 56.6423 156.566 55.6566 156.457 54.671C156.347 53.6848 156.347 53.6848 155.828 52.7442C152.2 52.583 148.572 52.4219 144.834 52.2558C143.82 55.7285 143.82 55.7285 143.878 57.6279C141.985 57.6279 140.092 57.6279 138.142 57.6279C138.142 57.1444 138.142 56.661 138.142 56.1628C138.418 55.8833 138.695 55.6038 138.98 55.3158C140.32 53.9346 141.09 52.3892 141.93 50.6686C142.098 50.3291 142.266 49.9897 142.44 49.6399C142.792 48.925 143.143 48.2091 143.492 47.4923C144.027 46.3954 144.572 45.3042 145.118 44.213C145.46 43.5163 145.802 42.8194 146.143 42.1221C146.306 41.7965 146.47 41.4709 146.639 41.1354C147.536 39.2651 147.738 38.7318 147.224 36.6279ZM150.092 41.0233C149.518 42.1295 148.952 43.2385 148.389 44.3503C148.225 44.6641 148.062 44.978 147.893 45.3013C147.474 46.1362 147.106 46.9976 146.746 47.8605C146.903 48.344 147.061 48.8275 147.224 49.3256C148.16 49.3388 149.096 49.3483 150.032 49.3561C150.553 49.3618 151.074 49.3675 151.611 49.3733C152.937 49.422 152.937 49.422 153.916 48.8372C153.129 46.0608 151.865 43.579 150.57 41.0233C150.412 41.0233 150.254 41.0233 150.092 41.0233Z" fill="white"/>
<path d="M64.0522 36.6279C65.9451 36.6279 67.838 36.6279 69.7882 36.6279C69.7882 37.1114 69.7882 37.5949 69.7882 38.093C71.1158 42.1396 73.0924 46.0194 74.867 49.875C75.0961 50.3791 75.3252 50.8832 75.5612 51.4026C75.7819 51.8768 76.0026 52.351 76.23 52.8396C76.5264 53.4818 76.5264 53.4818 76.8287 54.1371C77.4171 55.326 77.4171 55.326 78.8702 56.1628C78.7125 56.6463 78.5548 57.1298 78.3922 57.6279C76.6571 57.6279 74.922 57.6279 73.1342 57.6279C73.1342 57.1444 73.1342 56.661 73.1342 56.1628C72.8306 55.019 72.5135 53.8788 72.1782 52.7442C70.8507 52.3599 69.6802 52.1975 68.302 52.2081C67.7613 52.2105 67.7613 52.2105 67.2097 52.2129C66.8381 52.217 66.4666 52.2211 66.0837 52.2253C65.7048 52.2275 65.3259 52.2297 64.9354 52.232C64.0037 52.2377 63.072 52.2465 62.1402 52.2558C61.5093 53.5451 60.8783 54.8344 60.2282 56.1628C60.5437 56.1628 60.8592 56.1628 61.1842 56.1628C61.0265 56.6463 60.8688 57.1298 60.7062 57.6279C58.9711 57.6279 57.236 57.6279 55.4482 57.6279C55.606 56.9833 55.7637 56.3386 55.9262 55.6744C56.2417 55.6744 56.5572 55.6744 56.8822 55.6744C57.0579 55.0776 57.2335 54.4808 57.4144 53.8659C58.6037 50.2171 60.3942 46.8374 62.0833 43.4098C62.3356 42.8867 62.5879 42.3635 62.8479 41.8245C63.0791 41.3538 63.3103 40.883 63.5485 40.398C64.1962 38.9277 64.1962 38.9277 64.0522 36.6279ZM66.4422 41.5117C65.962 42.5484 65.4845 43.5864 65.0082 44.625C64.7421 45.2029 64.4759 45.7809 64.2016 46.3763C63.5111 47.7405 63.5111 47.7405 63.5742 48.8372C65.7826 48.8372 67.991 48.8372 70.2662 48.8372C69.4671 46.2712 68.6521 43.8907 67.3982 41.5117C67.0828 41.5117 66.7673 41.5117 66.4422 41.5117Z" fill="white"/>
<path d="M81.2598 36.6279C82.8372 36.6279 84.4146 36.6279 86.0398 36.6279C86.0323 37.3526 86.0323 37.3526 86.0246 38.0919C86.0073 39.8812 85.9963 41.6705 85.9873 43.4599C85.9824 44.2349 85.9759 45.0099 85.9676 45.7849C85.9561 46.8978 85.9506 48.0105 85.9464 49.1234C85.9415 49.4709 85.9365 49.8184 85.9315 50.1764C85.9313 51.0331 85.9814 51.8895 86.0398 52.7442C87.6013 54.3396 89.3851 54.2462 91.5069 54.3009C93.349 54.2758 94.8688 54.0513 96.5558 53.2326C97.0819 51.6199 97.1324 50.3312 97.185 48.6331C97.215 47.7148 97.215 47.7148 97.2457 46.7779C97.2645 46.1379 97.2833 45.498 97.3026 44.8387C97.3233 44.1866 97.3441 43.5344 97.3652 42.8823C97.416 41.286 97.4647 39.6895 97.5118 38.093C97.1963 38.093 96.8808 38.093 96.5558 38.093C96.5558 37.6096 96.5558 37.1261 96.5558 36.6279C98.1332 36.6279 99.7106 36.6279 101.336 36.6279C101.336 37.1114 101.336 37.5949 101.336 38.093C101.02 38.093 100.705 38.093 100.38 38.093C100.39 38.5363 100.4 38.9796 100.41 39.4363C100.443 41.0911 100.467 42.7454 100.485 44.4004C100.494 45.1147 100.507 45.829 100.524 46.5432C100.547 47.5738 100.558 48.6038 100.566 49.6347C100.576 50.2536 100.587 50.8725 100.597 51.5102C100.339 53.5555 99.7422 54.5808 98.4678 56.1628C94.9143 58.1798 90.6793 58.181 86.7381 57.3818C84.5666 56.6547 83.435 55.6542 82.2158 53.721C81.9624 52.085 81.9624 52.085 81.9413 50.2394C81.9345 49.9114 81.9277 49.5835 81.9208 49.2456C81.9008 48.2039 81.8935 47.1626 81.8871 46.1207C81.8732 45.0772 81.8567 44.0339 81.8381 42.9905C81.8226 42.0451 81.8139 41.0997 81.8056 40.1542C81.7856 38.5007 81.7856 38.5007 81.2598 36.6279Z" fill="white"/>
<path d="M212.232 35.6512C212.863 35.8124 213.494 35.9736 214.144 36.1396C215.513 36.1805 216.869 36.1964 218.237 36.1873C218.633 36.1866 219.029 36.1859 219.437 36.1852C220.7 36.1825 221.963 36.1764 223.226 36.1701C224.077 36.1677 224.927 36.1655 225.777 36.1635C227.336 36.1595 228.895 36.1542 230.454 36.1474C231.71 36.1421 232.965 36.1396 234.22 36.1396C234.22 37.4289 234.22 38.7182 234.22 40.0466C232.338 40.0466 230.48 39.9365 228.604 39.8024C228.271 39.7791 227.937 39.7558 227.594 39.7318C226.775 39.6745 225.957 39.6165 225.138 39.5582C225.153 40.0536 225.167 40.5489 225.182 41.0592C225.236 42.8968 225.289 44.7344 225.343 46.572C225.366 47.3674 225.389 48.1627 225.412 48.9581C225.446 50.1012 225.479 51.2444 225.512 52.3875C225.522 52.7432 225.533 53.0988 225.544 53.4652C225.584 54.8535 225.616 56.239 225.616 57.628C223.881 57.628 222.146 57.628 220.358 57.628C220.358 57.1445 220.358 56.661 220.358 56.1629C220.674 56.1629 220.989 56.1629 221.314 56.1629C221.314 50.6833 221.314 45.2038 221.314 39.5582C216.731 39.7729 216.731 39.7729 212.232 40.535C212.232 38.9233 212.232 37.3117 212.232 35.6512Z" fill="white"/>
</svg>
