<svg width="137" height="33" viewBox="0 0 137 33" fill="none" xmlns="http://www.w3.org/2000/svg">
<rect width="137" height="33" rx="10" fill="url(#paint0_linear_34800_119467)"/>
<path d="M22.4323 13.401V12.599H20.901V15.5885C21.9219 15.224 22.4323 14.4948 22.4323 13.401ZM13.099 15.5885V12.599H11.5677V13.401C11.5677 14.4948 12.0781 15.224 13.099 15.5885ZM22.4323 11.0677C22.8455 11.0677 23.2101 11.2196 23.526 11.5234C23.842 11.8273 24 12.1858 24 12.599V13.401C24 14.3733 23.6719 15.224 23.0156 15.9531C22.3594 16.6823 21.5451 17.1076 20.5729 17.2292C20.3542 17.7639 19.9714 18.25 19.4245 18.6875C18.8776 19.125 18.3247 19.4045 17.7656 19.526V21.9323H20.901V23.5H13.099V21.9323H16.2344V19.526C15.6753 19.4045 15.1224 19.125 14.5755 18.6875C14.0286 18.25 13.6458 17.7639 13.4271 17.2292C12.4549 17.1076 11.6406 16.6823 10.9844 15.9531C10.3281 15.224 10 14.3733 10 13.401V12.599C10 12.1858 10.158 11.8273 10.474 11.5234C10.7899 11.2196 11.1545 11.0677 11.5677 11.0677H13.099V9.5H20.901V11.0677H22.4323Z" fill="#001049"/>
<path d="M32.952 22.256C31.9173 22.256 31.0053 22.0213 30.216 21.552C29.4267 21.072 28.808 20.3947 28.36 19.52C27.912 18.6347 27.688 17.5733 27.688 16.336C27.688 15.12 27.9067 14.0693 28.344 13.184C28.7813 12.288 29.3947 11.6 30.184 11.12C30.9733 10.6293 31.9013 10.384 32.968 10.384C34.4187 10.384 35.544 10.7467 36.344 11.472C37.144 12.1867 37.6667 13.1893 37.912 14.48L35.736 14.592C35.5973 13.8453 35.2987 13.2587 34.84 12.832C34.3813 12.4053 33.7573 12.192 32.968 12.192C32.328 12.192 31.7733 12.3627 31.304 12.704C30.8347 13.0453 30.472 13.5253 30.216 14.144C29.96 14.7627 29.832 15.4933 29.832 16.336C29.832 17.1893 29.96 17.9253 30.216 18.544C30.4827 19.152 30.8507 19.6213 31.32 19.952C31.7893 20.2827 32.3333 20.448 32.952 20.448C33.7947 20.448 34.4453 20.2187 34.904 19.76C35.3733 19.2907 35.672 18.6507 35.8 17.84L37.976 17.952C37.8267 18.8373 37.5387 19.6053 37.112 20.256C36.6853 20.896 36.12 21.392 35.416 21.744C34.7227 22.0853 33.9013 22.256 32.952 22.256ZM44.9941 22.256C43.8741 22.256 42.9088 22.0213 42.0981 21.552C41.2875 21.072 40.6635 20.3893 40.2261 19.504C39.7995 18.6187 39.5861 17.5627 39.5861 16.336C39.5861 15.1093 39.7995 14.0533 40.2261 13.168C40.6635 12.272 41.2875 11.584 42.0981 11.104C42.9088 10.624 43.8741 10.384 44.9941 10.384C46.1355 10.384 47.1061 10.624 47.9061 11.104C48.7168 11.584 49.3355 12.272 49.7621 13.168C50.1995 14.0533 50.4181 15.1093 50.4181 16.336C50.4181 17.5627 50.1995 18.6187 49.7621 19.504C49.3355 20.3893 48.7168 21.072 47.9061 21.552C47.1061 22.0213 46.1355 22.256 44.9941 22.256ZM44.9941 20.448C45.6875 20.448 46.2741 20.288 46.7541 19.968C47.2448 19.6373 47.6181 19.168 47.8741 18.56C48.1408 17.9413 48.2741 17.2 48.2741 16.336C48.2741 15.472 48.1408 14.7307 47.8741 14.112C47.6181 13.4933 47.2448 13.0187 46.7541 12.688C46.2741 12.3573 45.6875 12.192 44.9941 12.192C44.3221 12.192 43.7408 12.3573 43.2501 12.688C42.7595 13.0187 42.3808 13.4933 42.1141 14.112C41.8581 14.7307 41.7301 15.472 41.7301 16.336C41.7301 17.2 41.8581 17.9413 42.1141 18.56C42.3808 19.168 42.7595 19.6373 43.2501 19.968C43.7408 20.288 44.3221 20.448 44.9941 20.448ZM52.4512 22V10.64H56.8512C58.1846 10.64 59.2246 10.96 59.9712 11.6C60.7179 12.24 61.0912 13.1253 61.0912 14.256C61.0912 15.0133 60.9206 15.6693 60.5792 16.224C60.2379 16.768 59.7526 17.184 59.1232 17.472C58.4939 17.76 57.7366 17.904 56.8512 17.904H54.5312V22H52.4512ZM54.5312 16.096H56.7552C57.4592 16.096 57.9979 15.9413 58.3712 15.632C58.7552 15.3227 58.9472 14.864 58.9472 14.256C58.9472 13.6587 58.7552 13.2107 58.3712 12.912C57.9979 12.6027 57.4592 12.448 56.7552 12.448H54.5312V16.096ZM61.1546 22L65.2506 10.64H67.7946L71.8906 22H69.7146L68.7706 19.312H64.2746L63.3306 22H61.1546ZM64.8826 17.536H68.1626L66.5306 12.736L64.8826 17.536ZM77.8956 22V10.64H82.2956C83.629 10.64 84.669 10.96 85.4156 11.6C86.1623 12.24 86.5356 13.1253 86.5356 14.256C86.5356 15.0133 86.365 15.6693 86.0236 16.224C85.6823 16.768 85.197 17.184 84.5676 17.472C83.9383 17.76 83.181 17.904 82.2956 17.904H79.9756V22H77.8956ZM79.9756 16.096H82.1996C82.9036 16.096 83.4423 15.9413 83.8156 15.632C84.1996 15.3227 84.3916 14.864 84.3916 14.256C84.3916 13.6587 84.1996 13.2107 83.8156 12.912C83.4423 12.6027 82.9036 12.448 82.1996 12.448H79.9756V16.096ZM88.8406 22V10.64H90.9206V21.36L89.7846 20.192H96.3126V22H88.8406ZM97.2471 22L101.343 10.64H103.887L107.983 22H105.807L104.863 19.312H100.367L99.4231 22H97.2471ZM100.975 17.536H104.255L102.623 12.736L100.975 17.536ZM110.692 22V12.448H107.236V10.64H116.212V12.448H112.772V22H110.692ZM115.481 22L119.577 10.64H122.121L126.217 22H124.041L123.097 19.312H118.601L117.657 22H115.481ZM119.209 17.536H122.489L120.857 12.736L119.209 17.536Z" fill="#001049"/>
<defs>
<linearGradient id="paint0_linear_34800_119467" x1="-4.74832e-08" y1="16.5" x2="80.4516" y2="9.89964" gradientUnits="userSpaceOnUse">
<stop stop-color="white"/>
<stop offset="1" stop-color="#B8B8B8"/>
</linearGradient>
</defs>
</svg>
