<svg width="123" height="33" viewBox="0 0 123 33" fill="none" xmlns="http://www.w3.org/2000/svg">
<rect width="123" height="33" rx="10" fill="url(#paint0_linear_34800_119464)"/>
<path d="M22.4323 13.401V12.599H20.901V15.5885C21.9219 15.224 22.4323 14.4948 22.4323 13.401ZM13.099 15.5885V12.599H11.5677V13.401C11.5677 14.4948 12.0781 15.224 13.099 15.5885ZM22.4323 11.0677C22.8455 11.0677 23.2101 11.2196 23.526 11.5234C23.842 11.8273 24 12.1858 24 12.599V13.401C24 14.3733 23.6719 15.224 23.0156 15.9531C22.3594 16.6823 21.5451 17.1076 20.5729 17.2292C20.3542 17.7639 19.9714 18.25 19.4245 18.6875C18.8776 19.125 18.3247 19.4045 17.7656 19.526V21.9323H20.901V23.5H13.099V21.9323H16.2344V19.526C15.6753 19.4045 15.1224 19.125 14.5755 18.6875C14.0286 18.25 13.6458 17.7639 13.4271 17.2292C12.4549 17.1076 11.6406 16.6823 10.9844 15.9531C10.3281 15.224 10 14.3733 10 13.401V12.599C10 12.1858 10.158 11.8273 10.474 11.5234C10.7899 11.2196 11.1545 11.0677 11.5677 11.0677H13.099V9.5H20.901V11.0677H22.4323Z" fill="#181301"/>
<path d="M32.952 22.256C31.9173 22.256 31.0053 22.0213 30.216 21.552C29.4267 21.072 28.808 20.3947 28.36 19.52C27.912 18.6347 27.688 17.5733 27.688 16.336C27.688 15.12 27.9067 14.0693 28.344 13.184C28.7813 12.288 29.3947 11.6 30.184 11.12C30.9733 10.6293 31.9013 10.384 32.968 10.384C34.4187 10.384 35.544 10.7467 36.344 11.472C37.144 12.1867 37.6667 13.1893 37.912 14.48L35.736 14.592C35.5973 13.8453 35.2987 13.2587 34.84 12.832C34.3813 12.4053 33.7573 12.192 32.968 12.192C32.328 12.192 31.7733 12.3627 31.304 12.704C30.8347 13.0453 30.472 13.5253 30.216 14.144C29.96 14.7627 29.832 15.4933 29.832 16.336C29.832 17.1893 29.96 17.9253 30.216 18.544C30.4827 19.152 30.8507 19.6213 31.32 19.952C31.7893 20.2827 32.3333 20.448 32.952 20.448C33.7947 20.448 34.4453 20.2187 34.904 19.76C35.3733 19.2907 35.672 18.6507 35.8 17.84L37.976 17.952C37.8267 18.8373 37.5387 19.6053 37.112 20.256C36.6853 20.896 36.12 21.392 35.416 21.744C34.7227 22.0853 33.9013 22.256 32.952 22.256ZM44.9941 22.256C43.8741 22.256 42.9088 22.0213 42.0981 21.552C41.2875 21.072 40.6635 20.3893 40.2261 19.504C39.7995 18.6187 39.5861 17.5627 39.5861 16.336C39.5861 15.1093 39.7995 14.0533 40.2261 13.168C40.6635 12.272 41.2875 11.584 42.0981 11.104C42.9088 10.624 43.8741 10.384 44.9941 10.384C46.1355 10.384 47.1061 10.624 47.9061 11.104C48.7168 11.584 49.3355 12.272 49.7621 13.168C50.1995 14.0533 50.4181 15.1093 50.4181 16.336C50.4181 17.5627 50.1995 18.6187 49.7621 19.504C49.3355 20.3893 48.7168 21.072 47.9061 21.552C47.1061 22.0213 46.1355 22.256 44.9941 22.256ZM44.9941 20.448C45.6875 20.448 46.2741 20.288 46.7541 19.968C47.2448 19.6373 47.6181 19.168 47.8741 18.56C48.1408 17.9413 48.2741 17.2 48.2741 16.336C48.2741 15.472 48.1408 14.7307 47.8741 14.112C47.6181 13.4933 47.2448 13.0187 46.7541 12.688C46.2741 12.3573 45.6875 12.192 44.9941 12.192C44.3221 12.192 43.7408 12.3573 43.2501 12.688C42.7595 13.0187 42.3808 13.4933 42.1141 14.112C41.8581 14.7307 41.7301 15.472 41.7301 16.336C41.7301 17.2 41.8581 17.9413 42.1141 18.56C42.3808 19.168 42.7595 19.6373 43.2501 19.968C43.7408 20.288 44.3221 20.448 44.9941 20.448ZM52.4512 22V10.64H56.8512C58.1846 10.64 59.2246 10.96 59.9712 11.6C60.7179 12.24 61.0912 13.1253 61.0912 14.256C61.0912 15.0133 60.9206 15.6693 60.5792 16.224C60.2379 16.768 59.7526 17.184 59.1232 17.472C58.4939 17.76 57.7366 17.904 56.8512 17.904H54.5312V22H52.4512ZM54.5312 16.096H56.7552C57.4592 16.096 57.9979 15.9413 58.3712 15.632C58.7552 15.3227 58.9472 14.864 58.9472 14.256C58.9472 13.6587 58.7552 13.2107 58.3712 12.912C57.9979 12.6027 57.4592 12.448 56.7552 12.448H54.5312V16.096ZM61.1546 22L65.2506 10.64H67.7946L71.8906 22H69.7146L68.7706 19.312H64.2746L63.3306 22H61.1546ZM64.8826 17.536H68.1626L66.5306 12.736L64.8826 17.536ZM82.7116 22.256C81.5916 22.256 80.6263 22.0213 79.8156 21.552C79.005 21.072 78.381 20.3893 77.9436 19.504C77.517 18.6187 77.3036 17.5627 77.3036 16.336C77.3036 15.1093 77.517 14.0533 77.9436 13.168C78.381 12.272 79.005 11.584 79.8156 11.104C80.6263 10.624 81.5916 10.384 82.7116 10.384C83.853 10.384 84.8236 10.624 85.6236 11.104C86.4343 11.584 87.053 12.272 87.4796 13.168C87.917 14.0533 88.1356 15.1093 88.1356 16.336C88.1356 17.5627 87.917 18.6187 87.4796 19.504C87.053 20.3893 86.4343 21.072 85.6236 21.552C84.8236 22.0213 83.853 22.256 82.7116 22.256ZM82.7116 20.448C83.405 20.448 83.9916 20.288 84.4716 19.968C84.9623 19.6373 85.3356 19.168 85.5916 18.56C85.8583 17.9413 85.9916 17.2 85.9916 16.336C85.9916 15.472 85.8583 14.7307 85.5916 14.112C85.3356 13.4933 84.9623 13.0187 84.4716 12.688C83.9916 12.3573 83.405 12.192 82.7116 12.192C82.0396 12.192 81.4583 12.3573 80.9676 12.688C80.477 13.0187 80.0983 13.4933 79.8316 14.112C79.5756 14.7307 79.4476 15.472 79.4476 16.336C79.4476 17.2 79.5756 17.9413 79.8316 18.56C80.0983 19.168 80.477 19.6373 80.9676 19.968C81.4583 20.288 82.0396 20.448 82.7116 20.448ZM90.1687 22V10.64H94.9207C95.7421 10.64 96.4514 10.7787 97.0487 11.056C97.6461 11.3333 98.1101 11.728 98.4407 12.24C98.7714 12.752 98.9367 13.3547 98.9367 14.048C98.9367 14.5707 98.8247 15.0347 98.6007 15.44C98.3767 15.8453 98.0727 16.1707 97.6887 16.416C97.3154 16.6613 96.8994 16.8107 96.4407 16.864L96.3607 16.704C97.0967 16.704 97.6621 16.8693 98.0567 17.2C98.4621 17.5307 98.6914 18.0373 98.7447 18.72L99.0327 22H96.9207L96.6807 19.024C96.6487 18.576 96.5047 18.2453 96.2487 18.032C95.9927 17.8187 95.5661 17.712 94.9687 17.712H92.2487V22H90.1687ZM92.2487 15.888H94.7927C95.4221 15.888 95.9127 15.7387 96.2647 15.44C96.6167 15.1413 96.7927 14.72 96.7927 14.176C96.7927 13.6213 96.6114 13.1947 96.2487 12.896C95.8967 12.5973 95.3794 12.448 94.6967 12.448H92.2487V15.888ZM106.102 22.256C104.982 22.256 104.016 22.0213 103.206 21.552C102.395 21.072 101.771 20.3893 101.334 19.504C100.907 18.6187 100.694 17.5627 100.694 16.336C100.694 15.1093 100.907 14.0533 101.334 13.168C101.771 12.272 102.395 11.584 103.206 11.104C104.016 10.624 104.982 10.384 106.102 10.384C107.243 10.384 108.214 10.624 109.014 11.104C109.824 11.584 110.443 12.272 110.87 13.168C111.307 14.0533 111.526 15.1093 111.526 16.336C111.526 17.5627 111.307 18.6187 110.87 19.504C110.443 20.3893 109.824 21.072 109.014 21.552C108.214 22.0213 107.243 22.256 106.102 22.256ZM106.102 20.448C106.795 20.448 107.382 20.288 107.862 19.968C108.352 19.6373 108.726 19.168 108.982 18.56C109.248 17.9413 109.382 17.2 109.382 16.336C109.382 15.472 109.248 14.7307 108.982 14.112C108.726 13.4933 108.352 13.0187 107.862 12.688C107.382 12.3573 106.795 12.192 106.102 12.192C105.43 12.192 104.848 12.3573 104.358 12.688C103.867 13.0187 103.488 13.4933 103.222 14.112C102.966 14.7307 102.838 15.472 102.838 16.336C102.838 17.2 102.966 17.9413 103.222 18.56C103.488 19.168 103.867 19.6373 104.358 19.968C104.848 20.288 105.43 20.448 106.102 20.448Z" fill="#181301"/>
<defs>
<linearGradient id="paint0_linear_34800_119464" x1="32" y1="17" x2="115.489" y2="16.0451" gradientUnits="userSpaceOnUse">
<stop stop-color="#FFDF2A"/>
<stop offset="1" stop-color="#EBAF0B"/>
</linearGradient>
</defs>
</svg>
